<?xml version="1.0" encoding="UTF-8"?>
<svg xmlns="http://www.w3.org/2000/svg" xmlns:xlink="http://www.w3.org/1999/xlink" width="34px" height="36px" viewBox="0 0 34 35" version="1.1">
<g id="surface1">
<path style="fill-rule:nonzero;fill:rgb(98.039216%,95.686275%,82.745098%);fill-opacity:1;stroke-width:1;stroke-linecap:butt;stroke-linejoin:miter;stroke:rgb(43.529412%,83.137255%,19.607843%);stroke-opacity:1;stroke-miterlimit:10;" d="M 18.140134 19.908862 C 3.099014 19.079705 4.460111 10.029602 4.460111 10.029602 L 6.389259 10.699305 L 12.800447 12.040989 C 14.159316 12.43051 15.230818 12.899758 16.059505 13.400896 C 16.600825 10.029602 16.750078 2.230066 7.079832 0.74943 C 5.42914 0.501138 3.499992 0.430523 1.238923 0.589977 C 1.238923 0.589977 -2.900058 13.669689 8.200342 18.309775 C 10.679721 19.350776 13.920957 19.958975 18.128996 19.908862 C 18.128996 19.908862 20.499219 16.091098 16.059505 13.400896 C 15.999358 13.359894 15.939212 13.330281 15.870155 13.289279 C 15.850106 13.289279 15.838967 13.271056 15.818918 13.259666 C 15.801097 13.250555 15.781048 13.239165 15.760999 13.230054 C 15.729812 13.220942 15.709763 13.200441 15.680804 13.189051 C 15.58056 13.129826 15.469177 13.079712 15.360022 13.020487 C 15.331062 13.009097 15.299875 12.990874 15.279826 12.979484 C 15.250867 12.970373 15.21968 12.949872 15.19072 12.94076 C 15.159533 12.929371 15.130573 12.908869 15.099386 12.899758 C 15.03924 12.870145 14.979093 12.849644 14.918946 12.820031 C 14.769693 12.749416 14.609302 12.690191 14.448911 12.619576 C 14.419952 12.610464 14.390992 12.589963 14.350895 12.580852 L 14.25065 12.539849 C 14.150406 12.501125 14.050161 12.460123 13.949917 12.43051 C 13.920957 12.419121 13.88086 12.400897 13.849672 12.389508 C 13.820713 12.380396 13.52889 12.280169 13.419735 12.239166 C 13.350678 12.220943 13.270482 12.189052 13.199197 12.170829 C 13.1591 12.15944 13.119002 12.150328 13.090042 12.129827 C 13.000936 12.100214 12.900692 12.070602 12.800447 12.040989 L 8.530035 11.150329 L 8.518896 11.150329 C 8.518896 11.150329 6.389259 10.699305 6.389259 10.699305 L 6.389259 10.610467 " transform="matrix(1.753526,0,0,1.714846,0.0697027,0)"/>
<path style="fill-rule:nonzero;fill:rgb(67.843137%,100%,82.745098%);fill-opacity:1;stroke-width:1;stroke-linecap:butt;stroke-linejoin:miter;stroke:rgb(43.529412%,83.137255%,19.607843%);stroke-opacity:1;stroke-miterlimit:10;" d="M 18.180232 19.89975 C 3.139112 19.070594 4.500209 10.02049 4.500209 10.02049 L 13.090042 12.100214 C 13.090042 12.100214 13.049945 12.091103 13.090042 12.100214 C 13.170238 12.120715 13.399686 12.200442 13.470971 12.220943 C 13.580126 12.259667 13.869721 12.350783 13.900908 12.369007 C 13.929868 12.389508 13.969966 12.389508 13.998925 12.410009 C 14.09917 12.451011 14.210552 12.489735 14.299658 12.519348 L 14.399903 12.56035 C 14.399903 12.56035 14.46896 12.589963 14.500147 12.599075 C 14.660538 12.66969 14.82093 12.728915 14.970182 12.79953 C 15.030329 12.829143 15.090476 12.849644 15.150622 12.879257 C 15.179582 12.890646 15.210769 12.908869 15.239728 12.920259 C 15.270916 12.929371 15.299875 12.949872 15.331062 12.958983 C 15.360022 12.970373 15.388981 12.990874 15.40903 12.999985 C 15.520413 13.059211 15.629568 13.109325 15.729812 13.170828 C 15.760999 13.17994 15.781048 13.200441 15.810008 13.209552 C 15.830057 13.220942 15.850106 13.230054 15.870155 13.239165 C 15.890203 13.239165 15.910252 13.259666 15.919163 13.271056 C 15.97931 13.30978 16.050594 13.339393 16.110741 13.380395 C 20.550455 16.079709 18.180232 19.890638 18.180232 19.890638 C 18.01093 19.890638 17.839401 19.890638 17.67901 19.861026 " transform="matrix(1.753526,0,0,1.714846,0.0697027,0)"/>
<path style="fill-rule:nonzero;fill:rgb(80.784314%,99.607843%,39.607843%);fill-opacity:1;stroke-width:1;stroke-linecap:butt;stroke-linejoin:miter;stroke:rgb(43.529412%,83.137255%,19.607843%);stroke-opacity:1;stroke-miterlimit:10;" d="M 11.530685 9.091106 L 11.029462 11.640078 L 8.550084 11.150329 L 8.538945 11.150329 C 8.538945 11.150329 6.110803 10.669692 6.110803 10.669692 C 5.509336 10.548963 4.959105 10.330285 4.469022 10.040991 C 4.469022 7.451017 5.360083 5.339402 5.360083 5.339402 C 7.079832 5.209561 8.550084 5.271065 9.799798 5.460131 C 10.240873 5.530746 10.639623 5.610472 11.009414 5.7107 C 11.550734 6.710699 11.760133 7.890652 11.530685 9.091106 Z M 11.530685 9.091106 " transform="matrix(1.753526,0,0,1.714846,0.0697027,0)"/>
<path style="fill-rule:nonzero;fill:rgb(52.156863%,90.196078%,29.411765%);fill-opacity:1;stroke-width:1;stroke-linecap:butt;stroke-linejoin:miter;stroke:rgb(43.529412%,83.137255%,19.607843%);stroke-opacity:1;stroke-miterlimit:10;" d="M 11.009414 5.69931 C 10.639623 5.599083 10.240873 5.519356 9.799798 5.451019 C 8.550084 5.259675 7.079832 5.209561 5.360083 5.33029 C 5.360083 5.33029 4.460111 7.451017 4.469022 10.029602 C 2.709175 8.958988 1.708958 6.870152 2.138896 4.740314 L 2.640118 2.189064 L 7.561005 3.15945 C 9.089176 3.460133 10.329979 4.430519 11.020552 5.69931 Z M 11.009414 5.69931 " transform="matrix(1.753526,0,0,1.714846,0.0697027,0)"/>
<path style="fill-rule:nonzero;fill:rgb(84.313725%,91.372549%,20.784314%);fill-opacity:1;stroke-width:1;stroke-linecap:butt;stroke-linejoin:miter;stroke:rgb(43.529412%,83.137255%,19.607843%);stroke-opacity:1;stroke-miterlimit:10;" d="M 11.009414 5.69931 C 11.009414 5.69931 11.160894 5.728923 11.390342 5.790426 C 12.628918 6.150335 16.300092 7.619581 13.430873 12.230055 L 11.020552 11.640078 L 11.519546 9.091106 C 11.519546 9.091106 11.800231 6.790425 11.000503 5.7107 Z M 11.009414 5.69931 " transform="matrix(1.753526,0,0,1.714846,0.0697027,0)"/>
<path style="fill:none;stroke-width:1;stroke-linecap:round;stroke-linejoin:miter;stroke:rgb(43.529412%,83.137255%,19.607843%);stroke-opacity:1;stroke-miterlimit:10;" d="M 17.67901 19.879249 C 14.46896 19.920251 11.809141 18.779022 9.920091 17.990868 C 5.540523 16.159435 4.48016 12.820031 4.469022 10.029602 " transform="matrix(1.753526,0,0,1.714846,0.0697027,0)"/>
<path style="fill:none;stroke-width:1;stroke-linecap:round;stroke-linejoin:miter;stroke:rgb(43.529412%,83.137255%,19.607843%);stroke-opacity:1;stroke-miterlimit:10;" d="M 11.009414 5.69931 C 16.540678 7.189058 14.159316 11.970374 13.098953 12.120715 C 13.098953 12.120715 13.009847 12.120715 12.969749 12.120715 L 10.828974 11.599076 " transform="matrix(1.753526,0,0,1.714846,0.0697027,0)"/>
<path style="fill:none;stroke-width:1;stroke-linecap:round;stroke-linejoin:round;stroke:rgb(43.529412%,83.137255%,19.607843%);stroke-opacity:1;stroke-miterlimit:4;" d="M 9.029029 13.610463 L 13.909819 14.630963 C 14.950133 14.929368 15.760999 15.280165 16.389198 15.669686 C 19.770777 17.719798 17.670099 19.89975 17.670099 19.89975 " transform="matrix(1.753526,0,0,1.714846,0.0697027,0)"/>
</g>
</svg>
