<?xml version="1.0" encoding="UTF-8"?>
<svg id="Layer_2" data-name="Layer 2" xmlns="http://www.w3.org/2000/svg" viewBox="0 0 30.96 32.7">
  <defs>
    <style>
      .cls-1 {
        fill: #faf4d3;
      }

      .cls-1, .cls-2, .cls-3, .cls-4, .cls-5, .cls-6, .cls-7 {
        stroke: #6fd432;
        stroke-width: 2px;
      }

      .cls-1, .cls-2, .cls-3, .cls-4, .cls-6, .cls-7 {
        stroke-miterlimit: 10;
      }

      .cls-2 {
        fill: #adffd3;
      }

      .cls-3 {
        fill: #cefe65;
      }

      .cls-4, .cls-5 {
        fill: none;
        stroke-linecap: round;
      }

      .cls-5 {
        stroke-linejoin: round;
      }

      .cls-6 {
        fill: #d7e935;
      }

      .cls-7 {
        fill: #85e64b;
      }
    </style>
  </defs>
  <g id="Layer_1-2" data-name="Layer 1">
    <g>
      <path class="cls-1" d="M28.9,31.7C5.12,30.39,7.27,16.08,7.27,16.08l3.06,1.06,10.14,2.11c2.16,.62,3.85,1.36,5.16,2.15,.86-5.34,1.1-17.66-14.2-20.01h0c-2.6-.4-5.65-.51-9.23-.25,0,0-6.55,20.69,11,28.02,3.92,1.64,9.04,2.61,15.7,2.54,0,0,3.76-6.04-3.27-10.3-.1-.06-.2-.12-.3-.17-.03-.02-.06-.03-.08-.05-.03-.02-.06-.04-.09-.05-.04-.02-.08-.05-.12-.07-.17-.09-.34-.18-.51-.27-.04-.02-.09-.04-.13-.07-.04-.02-.09-.04-.13-.07-.04-.02-.09-.04-.14-.07-.09-.04-.18-.09-.28-.13h0c-.24-.11-.48-.21-.74-.32-.05-.02-.1-.04-.15-.06l-.16-.06c-.16-.06-.32-.12-.48-.18-.06-.02-.11-.04-.17-.06s-.51-.18-.68-.23c-.12-.04-.24-.08-.35-.11-.06-.02-.12-.04-.18-.06h0c-.15-.05-.3-.09-.45-.13l-6.75-1.41h-.02s-3.38-.71-3.38-.71v-.14"/>
      <path class="cls-2" d="M28.95,31.68C5.17,30.37,7.32,16.06,7.32,16.06l13.58,3.29h0c.06,.02-.06-.02,0,0,.12,.04,.49,.15,.6,.19,.17,.06,.63,.21,.68,.23s.11,.04,.17,.06c.16,.06,.32,.12,.48,.18l.16,.06c.05,.02,.1,.04,.15,.06,.25,.1,.5,.21,.74,.32h0c.09,.04,.19,.09,.28,.13,.05,.02,.09,.04,.14,.07,.05,.02,.09,.04,.13,.07,.04,.02,.09,.04,.13,.07,.18,.09,.35,.18,.51,.27,.04,.02,.08,.04,.12,.07,.03,.02,.06,.03,.09,.05,.03,.02,.06,.03,.08,.05,.1,.06,.2,.12,.3,.17,7.03,4.26,3.27,10.3,3.27,10.3-.27,0-.54-.01-.79-.05"/>
      <path class="cls-3" d="M18.44,14.58l-.8,4.04-3.92-.77h-.02s-3.84-.76-3.84-.76c-.94-.19-1.81-.53-2.59-1-.01-4.09,1.41-7.44,1.41-7.44,2.72-.2,5.04-.12,7.02,.19,.7,.11,1.34,.24,1.92,.4,.86,1.58,1.19,3.45,.82,5.35Z"/>
      <path class="cls-7" d="M17.63,9.22c-.58-.16-1.22-.29-1.92-.4-1.98-.3-4.3-.39-7.02-.19,0,0-1.42,3.35-1.41,7.44-2.78-1.69-4.36-4.99-3.69-8.37l.8-4.04,7.78,1.54c2.43,.48,4.38,2.01,5.47,4.02Z"/>
      <path class="cls-6" d="M17.63,9.22s.24,.04,.61,.15c1.97,.56,7.77,2.9,3.23,10.18l-3.82-.94,.8-4.04s.44-3.64-.82-5.35Z"/>
      <g id="garis">
        <path class="cls-4" d="M28.16,31.66c-5.07,.06-9.29-1.74-12.27-2.99-6.93-2.9-8.61-8.18-8.62-12.59"/>
        <path class="cls-4" d="M17.63,9.22c8.75,2.35,4.99,9.91,3.3,10.16h0c-.07,.01-.14,0-.21-.01l-3.38-.82"/>
        <path class="cls-5" d="M14.49,21.73l7.72,1.61c1.64,.47,2.93,1.03,3.93,1.64,5.35,3.25,2.03,6.68,2.03,6.68"/>
      </g>
    </g>
  </g>
</svg>