<svg width="234" height="234" viewBox="0 0 234 234" fill="none" xmlns="http://www.w3.org/2000/svg">
<rect width="234" height="234" rx="117" fill="#F5F5F5"/>
<g clip-path="url(#clip0_519_4588)">
<path d="M152.872 118.461L152.992 126.157H216.487V118.461H152.872Z" fill="#EBEBEB"/>
<path d="M155.638 124.188L164.045 203.18C164.128 203.962 164.498 204.686 165.084 205.212C165.67 205.737 166.43 206.028 167.218 206.028H208.216L212.031 124.188H155.638Z" fill="#EBEBEB"/>
<path d="M216.121 205.567C217.756 197.991 212.926 190.527 205.333 188.896C197.74 187.265 190.26 192.084 188.625 199.66C186.991 207.236 191.821 214.7 199.413 216.331C207.006 217.962 214.486 213.142 216.121 205.567Z" fill="#E0E0E0"/>
<path d="M214.716 126.228C214.716 126.29 200.959 126.343 183.998 126.343C167.036 126.343 153.274 126.29 153.274 126.228C153.274 126.166 167.027 126.113 183.998 126.113C200.968 126.113 214.716 126.162 214.716 126.228Z" fill="#E0E0E0"/>
<path d="M216.487 118.426C216.487 118.488 202.304 118.541 184.817 118.541C167.329 118.541 153.142 118.488 153.142 118.426C153.142 118.364 167.302 118.311 184.817 118.311C202.331 118.311 216.487 118.364 216.487 118.426Z" fill="#E0E0E0"/>
<path d="M211.862 204.547C212.928 199.321 209.547 194.222 204.31 193.158C199.073 192.094 193.962 195.467 192.896 200.693C191.829 205.919 195.211 211.018 200.448 212.082C205.685 213.146 210.795 209.772 211.862 204.547Z" fill="#EBEBEB"/>
<path d="M185.976 152.564C185.976 152.564 189.414 153.567 188.755 157.457C188.095 161.346 185.976 161.916 185.976 161.916L190.777 163.867L195.578 162.909L197.494 161.196C197.494 161.196 194.618 159.536 194.516 156.309C194.414 153.081 195.804 152.776 196.388 152.255C196.972 151.734 193.1 150.931 193.1 150.931L189.715 150.578L185.976 152.564Z" fill="#F5F5F5"/>
<path d="M185.445 152.759C186.162 150.224 188.985 148.812 191.432 148.785C193.879 148.759 196.658 150.145 197.215 152.406C196.553 152.183 195.829 152.226 195.197 152.526C194.565 152.825 194.075 153.359 193.83 154.013C193.713 153.699 193.513 153.423 193.252 153.213C192.99 153.004 192.676 152.869 192.343 152.824C192.011 152.779 191.672 152.824 191.364 152.956C191.055 153.087 190.788 153.3 190.591 153.571C189.896 152.968 189.043 152.574 188.133 152.433C187.222 152.293 186.291 152.412 185.445 152.776" fill="#E0E0E0"/>
<path d="M192.485 146.41C192.485 146.445 192.281 146.533 192.043 146.789C191.727 147.127 191.517 147.549 191.436 148.004C191.362 148.468 191.35 148.94 191.401 149.408C191.432 149.607 191.432 149.809 191.401 150.008C191.301 149.829 191.24 149.63 191.224 149.425C191.124 148.943 191.115 148.445 191.197 147.959C191.283 147.459 191.54 147.004 191.923 146.67C192.228 146.41 192.481 146.383 192.485 146.41Z" fill="#E0E0E0"/>
<path d="M190.419 158.432C190.265 157.715 190.265 156.973 190.419 156.256C190.572 156.973 190.572 157.715 190.419 158.432Z" fill="#E0E0E0"/>
<path d="M192.543 158.229C192.389 157.58 192.389 156.905 192.543 156.256C192.696 156.905 192.696 157.58 192.543 158.229Z" fill="#E0E0E0"/>
<path d="M185.702 161.368C185.702 161.368 186.587 165.638 191.875 165.466C197.163 165.294 197.786 161.077 197.786 161.077C197.786 161.077 197.171 162.296 195.224 161.077C195.224 161.077 193.162 163.607 190.883 160.905C190.883 160.905 188.498 163.024 185.702 161.368Z" fill="#E0E0E0"/>
<path d="M139.628 103.856C140.275 102.667 141.136 101.607 142.168 100.73L134.052 96.0763C133.609 95.8623 133.219 95.5532 132.91 95.1712C132.763 94.9759 132.683 94.738 132.683 94.4935C132.683 94.2489 132.763 94.011 132.91 93.8158C133.091 93.6703 133.302 93.5664 133.528 93.5114C133.753 93.4565 133.988 93.4518 134.216 93.4979C135.798 93.6063 137.357 93.9409 138.844 94.4913C138.198 93.4846 137.552 92.4735 136.902 91.4669C136.632 91.0474 136.358 90.4999 136.632 90.0805C136.906 89.661 137.517 89.6875 138.021 89.8288C139.054 90.1406 139.991 90.7094 140.742 91.4818C141.494 92.2542 142.036 93.2048 142.318 94.244C142.231 91.9995 142.468 89.7542 143.022 87.5771C143.177 86.9589 143.416 86.279 144 86.0185C144.303 85.9144 144.632 85.9106 144.938 86.0076C145.244 86.1046 145.511 86.2973 145.699 86.5572C146.061 87.0832 146.289 87.6894 146.363 88.3232C147.033 92.1574 146.679 96.1 145.336 99.7542C146.956 99.869 148.557 100.748 149.942 101.684C155.089 105.159 159.475 109.641 162.833 114.859C162.833 114.859 169.559 126.184 161.089 132.55C158.381 134.586 155.443 134.316 152.053 134.343C148.664 134.369 145.075 135.111 141.805 134.219C139.194 133.504 136.42 132.674 134.685 130.599C132.428 127.906 132.605 123.976 133.264 120.519C134.391 114.635 136.544 108.995 139.628 103.856Z" fill="#E0E0E0"/>
<path d="M77.2785 124.643L77.1635 131.8H18.1465V124.643H77.2785Z" fill="#EBEBEB"/>
<path d="M74.7123 129.967L66.8888 203.397C66.8112 204.124 66.4669 204.797 65.922 205.286C65.3771 205.775 64.6702 206.046 63.9372 206.046H25.8242L22.2842 129.972L74.7123 129.967Z" fill="#EBEBEB"/>
<path d="M31.2669 215.901C38.4862 215.901 44.3386 210.061 44.3386 202.858C44.3386 195.655 38.4862 189.816 31.2669 189.816C24.0477 189.816 18.1953 195.655 18.1953 202.858C18.1953 210.061 24.0477 215.901 31.2669 215.901Z" fill="#E0E0E0"/>
<path d="M19.7974 131.862C19.7974 131.8 32.5814 131.747 48.3523 131.747C64.1232 131.747 76.9072 131.8 76.9072 131.862C76.9072 131.923 64.1232 131.976 48.3523 131.976C32.5814 131.976 19.7974 131.928 19.7974 131.862Z" fill="#E0E0E0"/>
<path d="M33.3604 211.59C38.1911 210.431 41.1656 205.584 40.0041 200.764C38.8425 195.944 33.9848 192.976 29.1541 194.135C24.3233 195.294 21.3488 200.141 22.5104 204.961C23.6719 209.781 28.5296 212.749 33.3604 211.59Z" fill="#EBEBEB"/>
<path d="M33.0459 120.96L37.5727 114.938H59.698L65.632 120.96H33.0459Z" fill="#EBEBEB"/>
<path d="M40.4268 169.81V151.311L42.9933 148.079V146.185H50.5911V148.304L53.1045 150.812V169.81H40.4268Z" fill="#E0E0E0"/>
<path d="M47.759 155.258H41.4224V164.322H47.759V155.258Z" fill="white"/>
<path d="M49.1089 169.81C49.0966 169.737 49.0966 169.663 49.1089 169.59C49.1089 169.417 49.1089 169.205 49.1089 168.954C49.1089 168.367 49.1089 167.572 49.0735 166.609C49.0514 164.636 49.0381 161.903 49.0381 158.887C49.0381 155.982 49.0381 153.346 49.0691 151.381V151.359L50.1886 149.129C50.3125 148.887 50.4187 148.688 50.5028 148.529C50.5344 148.456 50.5761 148.387 50.6267 148.326C50.6101 148.403 50.5833 148.477 50.547 148.547L50.2417 149.147C49.9762 149.712 49.6222 150.472 49.1885 151.408V151.372C49.1885 153.346 49.1885 155.982 49.2195 158.878C49.2195 161.894 49.2195 164.618 49.1841 166.6C49.1841 167.563 49.1576 168.367 49.1487 168.945C49.1487 169.197 49.1487 169.408 49.1266 169.581C49.1341 169.658 49.1281 169.735 49.1089 169.81Z" fill="#F5F5F5"/>
<path d="M49.0025 151.372C47.5526 151.486 46.0978 151.524 44.6439 151.487C43.1885 151.524 41.7321 151.486 40.2808 151.372C41.732 151.256 43.1885 151.218 44.6439 151.258C46.0978 151.218 47.5528 151.256 49.0025 151.372Z" fill="#F5F5F5"/>
<path d="M50.591 148.004C49.2921 148.12 47.9873 148.158 46.6837 148.118C45.3787 148.158 44.0724 148.12 42.772 148.004C44.0726 147.89 45.3787 147.852 46.6837 147.889C47.9873 147.852 49.2919 147.89 50.591 148.004Z" fill="#F5F5F5"/>
<path d="M15.9297 125.685L18.7307 119.172L76.4866 119.486L79.5576 125.685H15.9297Z" fill="#EBEBEB"/>
<path d="M17.6025 125.685C17.6025 125.623 31.4751 125.57 48.5779 125.57C65.6808 125.57 79.5533 125.623 79.5533 125.685C79.5533 125.747 65.6852 125.8 48.5779 125.8C31.4707 125.8 17.6025 125.751 17.6025 125.685Z" fill="#E0E0E0"/>
<path d="M76.4866 119.477C76.4866 119.543 63.561 119.521 47.622 119.437C31.6829 119.353 18.7573 119.225 18.7573 119.163C18.7573 119.102 31.6785 119.119 47.6264 119.208C63.5743 119.296 76.4866 119.424 76.4866 119.477Z" fill="#E0E0E0"/>
<path d="M183.617 63.9778H162.089V69.6602H183.617V63.9778Z" fill="#EBEBEB"/>
<path d="M174.515 75.6472C174.515 75.6472 174.515 75.6074 174.515 75.5412V75.2498C174.515 74.9849 174.515 74.6096 174.515 74.1328C174.515 73.1526 174.515 71.7397 174.475 69.9648L174.541 70.031L153.018 70.0708L153.124 69.9648V72.8435C153.124 73.7913 153.124 74.7229 153.124 75.6384L153.018 75.5324L168.36 75.581L172.891 75.6074H174.112H174.435H174.546H174.448H174.143H172.939L168.435 75.6384L153.018 75.6869H152.903V72.8524C152.903 72.3755 152.903 71.8987 152.903 71.4174V69.9736C153.124 69.7529 152.965 69.9118 153.018 69.8633L174.541 69.9074H174.586V69.9736C174.586 71.7662 174.555 73.1923 174.546 74.1813C174.546 74.6538 174.546 75.0202 174.546 75.2851C174.546 75.3999 174.546 75.4926 174.546 75.5633C174.539 75.5924 174.528 75.6205 174.515 75.6472Z" fill="#E0E0E0"/>
<path d="M58.649 17H37.1211V22.6824H58.649V17Z" fill="#EBEBEB"/>
<path d="M49.5514 28.6694C49.5483 28.6341 49.5483 28.5987 49.5514 28.5634V28.272C49.5514 28.0071 49.5514 27.6318 49.5514 27.155C49.5514 26.1748 49.5293 24.7619 49.516 22.987L49.5824 23.0532L28.0545 23.0974C28.1031 23.0444 27.9438 23.2034 28.1607 22.987V28.6694L28.0545 28.5634L43.3961 28.612L47.923 28.6429H49.1487H49.4673H49.5824H49.4806H49.1753H47.9717L43.4714 28.6738L28.0545 28.7224H27.9438V22.9958L28.0545 22.8855L49.5824 22.9296H49.6488V22.9958C49.6488 24.7884 49.6222 26.2145 49.6134 27.2035C49.6134 27.676 49.6134 28.0424 49.6134 28.3073C49.6134 28.4221 49.6134 28.5149 49.6134 28.5855C49.5947 28.6149 49.574 28.6429 49.5514 28.6694Z" fill="#E0E0E0"/>
<path d="M202.941 28.6782C202.94 28.6444 202.94 28.6105 202.941 28.5767V28.2853C202.941 28.0159 202.941 27.6451 202.941 27.1682C202.941 26.188 202.941 24.7752 202.906 22.9959L202.972 23.0621L181.445 23.1062L181.555 22.9959V25.8746C181.555 26.8253 181.555 27.7569 181.555 28.6694L181.449 28.5634L196.791 28.612L201.317 28.6429H202.543H202.866H202.977C202.977 28.6429 202.946 28.6429 202.88 28.6429H202.57H201.371L196.866 28.6738L181.449 28.7224H181.343V28.612C181.343 27.698 181.343 26.7664 181.343 25.8172V23.0003C181.564 22.7839 181.405 22.9429 181.453 22.8943L202.981 22.934H203.048V23.0003C203.048 24.7973 203.021 26.219 203.012 27.2124C203.012 27.6848 203.012 28.0513 203.012 28.3162V28.5943C202.946 28.6517 202.946 28.6826 202.941 28.6782Z" fill="#E0E0E0"/>
<path d="M205.862 22.9958C205.859 22.9606 205.859 22.9251 205.862 22.8899C205.862 22.806 205.862 22.7089 205.862 22.5896C205.862 22.3071 205.862 21.9274 205.862 21.4505C205.862 20.4527 205.836 19.0442 205.818 17.3135L205.897 17.393L192.963 17.4239C192.866 17.521 193.096 17.2914 193.069 17.3135V20.2363C193.069 21.19 193.069 22.1084 193.069 22.9914L192.967 22.8899L202.22 22.9384L204.915 22.9649H205.641H205.902C205.824 22.9713 205.745 22.9713 205.667 22.9649H204.959L202.304 22.9958L192.981 23.0444H192.875V22.9384C192.875 22.0554 192.875 21.137 192.875 20.1834V17.3179L192.985 17.2075L205.92 17.2384H205.999V17.3179C205.999 19.084 205.964 20.4924 205.955 21.4991C205.955 21.9715 205.955 22.3468 205.955 22.6206C205.955 22.8943 205.866 23.0047 205.862 22.9958Z" fill="#E0E0E0"/>
<path d="M121.162 167.161C121.158 167.127 121.158 167.093 121.162 167.06V166.768C121.162 166.499 121.162 166.128 121.162 165.647C121.162 164.667 121.14 163.258 121.127 161.479L121.193 161.545L99.6651 161.589C99.7137 161.541 99.5544 161.695 99.7713 161.479V167.161L99.6606 167.055L115.007 167.104L119.534 167.135H120.759H121.043H121.158H121.056H120.75H119.547L115.042 167.166L99.6252 167.214H99.519V161.505L99.6297 161.395L121.158 161.439H121.224V161.505C121.224 163.302 121.193 164.724 121.184 165.713C121.184 166.185 121.184 166.552 121.184 166.817V167.099C121.178 167.12 121.171 167.141 121.162 167.161Z" fill="#E0E0E0"/>
<path d="M124.078 161.496C124.078 161.496 124.078 161.457 124.078 161.386V161.086C124.078 160.808 124.078 160.428 124.056 159.947C124.056 158.949 124.056 157.545 124.012 155.814L124.091 155.894L111.157 155.924L111.267 155.814V158.733C111.267 159.682 111.267 160.605 111.267 161.488L111.161 161.382L120.414 161.435L123.109 161.461H123.839H124.096C124.018 161.467 123.939 161.467 123.861 161.461H123.158L120.503 161.488L111.179 161.541H111.077V158.68C111.077 158.203 111.077 157.721 111.077 157.231V155.761L111.188 155.651L124.122 155.682H124.14V155.761C124.14 157.527 124.109 158.936 124.1 159.942C124.1 160.415 124.1 160.79 124.078 161.064C124.093 161.208 124.093 161.353 124.078 161.496Z" fill="#E0E0E0"/>
<path d="M43.8607 76.2741C43.8575 76.2389 43.8575 76.2034 43.8607 76.1682C43.8607 76.0931 43.8607 75.996 43.8607 75.8768C43.8607 75.6119 43.8607 75.2366 43.8607 74.7597C43.8607 73.7795 43.8386 72.3667 43.8253 70.5918L43.8917 70.658L22.3638 70.6977L22.47 70.5918V76.2653L22.3638 76.1549L37.6745 76.2079L42.2013 76.2388H43.427H43.7456H43.8607H43.7589H43.4536H42.25L37.7497 76.2697L22.3328 76.3183H22.2222V70.6006L22.3328 70.4902L43.8607 70.5344H43.9271V70.6006C43.9271 72.3932 43.9005 73.8193 43.8917 74.8083C43.8917 75.2807 43.8917 75.6472 43.8917 75.9121C43.8917 76.0269 43.8917 76.1196 43.8917 76.1903C43.8831 76.2188 43.8727 76.2468 43.8607 76.2741Z" fill="#E0E0E0"/>
<path d="M143.464 36.0295C143.462 35.9957 143.462 35.9618 143.464 35.928V35.6366C143.464 35.3673 143.464 34.9964 143.464 34.5151C143.464 33.5349 143.442 32.1265 143.424 30.3472L143.491 30.4134L121.927 30.4664L122.038 30.356V33.2347C122.038 34.1855 122.038 35.1171 122.038 36.0295L121.932 35.9236L137.274 35.9721L141.805 36.003H143.026H143.349H143.46C143.46 36.003 143.429 36.003 143.362 36.003H143.057H141.854L137.349 36.034L121.927 36.1443H121.821V33.2435C121.821 32.7711 121.821 32.2899 121.821 31.8086V30.3648L121.932 30.2544L143.46 30.2986H143.531V30.3648C143.531 32.1618 143.5 33.5835 143.491 34.5725C143.491 35.0449 143.491 35.4158 143.491 35.6763V35.9589C143.469 36.0295 143.469 36.0295 143.464 36.0295Z" fill="#E0E0E0"/>
<path d="M199.534 43.138L198.459 41.3719C189.379 26.4485 172.966 17.4459 155.66 18.5409C153.428 18.6737 151.21 18.9689 149.022 19.4239C133.287 22.7839 119.6 34.6564 113.922 49.8624C110.586 58.8032 109.652 69.0994 103.302 76.1991C95.0584 85.4357 81.0664 85.7271 68.7603 85.343C56.4543 84.9588 42.4578 85.2856 34.2449 94.5619C29.1074 100.368 27.4745 108.629 27.8905 116.404C28.9835 137.001 43.3782 155.412 61.6581 164.565C79.938 173.718 101.484 174.535 121.498 170.512C149.54 164.87 176.205 149.381 192.237 125.477C208.269 101.573 212.362 68.9581 199.534 43.138Z" fill="#F5F5F5"/>
<path d="M223.004 216.691C223.004 216.753 175.763 216.806 117.507 216.806C59.2508 216.806 12 216.753 12 216.691C12 216.629 59.2286 216.576 117.507 216.576C175.785 216.576 223.004 216.611 223.004 216.691Z" fill="#263238"/>
<path d="M176.984 113.945C176.357 112.797 175.525 111.773 174.528 110.925L182.356 106.426C182.784 106.217 183.161 105.915 183.458 105.543C183.605 105.353 183.686 105.12 183.686 104.88C183.686 104.64 183.605 104.407 183.458 104.218C183.282 104.078 183.079 103.978 182.861 103.925C182.643 103.871 182.416 103.866 182.196 103.909C180.667 104.028 179.162 104.364 177.727 104.907L179.603 101.984C179.864 101.578 180.13 101.048 179.869 100.659C179.608 100.271 178.984 100.28 178.541 100.416C177.545 100.717 176.641 101.264 175.914 102.008C175.188 102.752 174.662 103.667 174.386 104.668C174.469 102.498 174.241 100.328 173.709 98.2221C173.559 97.6261 173.324 96.9682 172.762 96.7165C172.469 96.6164 172.151 96.6129 171.855 96.7067C171.56 96.8005 171.302 96.9866 171.12 97.2375C170.765 97.7468 170.544 98.3377 170.479 98.9551C169.83 102.657 170.172 106.465 171.47 109.993C169.904 110.103 168.372 110.956 167.014 111.861C162.038 115.219 157.8 119.553 154.557 124.599C154.557 124.599 148.053 135.548 156.239 141.703C158.859 143.668 161.956 144.984 165.231 144.997C168.505 145.01 171.722 144.176 174.882 143.315C177.408 142.626 180.086 141.818 181.767 139.813C183.949 137.213 183.776 133.402 183.139 130.069C182.049 124.376 179.966 118.918 176.984 113.945Z" fill="#263238"/>
<path d="M125.604 118.823L125.728 126.519H189.219V118.823H125.604Z" fill="#2E582C"/>
<path d="M127.724 124.44L136.132 203.432C136.215 204.214 136.585 204.937 137.171 205.463C137.756 205.989 138.517 206.28 139.304 206.28H180.338L184.157 124.44H127.724Z" fill="#2E582C"/>
<path d="M188.844 205.952C190.499 198.381 185.688 190.905 178.1 189.254C170.511 187.603 163.019 192.402 161.364 199.974C159.709 207.545 164.52 215.022 172.108 216.673C179.697 218.323 187.189 213.524 188.844 205.952Z" fill="#263238"/>
<path d="M201.193 60.1012L181.732 121.27L188.396 119.247L205.508 67.5938L201.193 60.1012Z" fill="#2E582C"/>
<path d="M200.853 81.6519L203.937 85.0781L196.791 105.114L192.675 106.328L200.853 81.6519Z" fill="#2E582C"/>
<path d="M145.61 157.298C145.61 157.298 143.889 159.006 144.681 160.83C145.473 162.653 148.066 166.15 148.066 166.15C148.503 163.992 149.445 161.968 150.814 160.243L152.358 161.095L150.69 154.595L144.429 156.445L145.61 157.298Z" fill="white"/>
<path d="M148.832 167.519C149.099 167.958 149.459 168.334 149.886 168.621C150.313 168.908 150.797 169.1 151.305 169.183C153.075 169.484 156.912 169.263 156.912 169.263L156.841 163.466L150.102 163.55C149.308 164.725 148.867 166.102 148.832 167.519Z" fill="white"/>
<path d="M164.802 148.348C164.802 148.348 164.266 145.99 162.297 145.699C160.328 145.407 155.978 145.73 155.978 145.73C157.573 147.248 158.786 149.121 159.518 151.196L157.974 152.048L164.408 154.083L166.178 147.805L164.802 148.348Z" fill="white"/>
<path d="M154.411 145.637C153.897 145.628 153.386 145.731 152.915 145.939C152.444 146.148 152.025 146.456 151.686 146.842C150.495 148.167 148.637 151.536 148.637 151.536L153.593 154.56L157.111 148.82C156.533 147.524 155.597 146.42 154.411 145.637Z" fill="white"/>
<path d="M163.939 169.21C163.939 169.21 166.297 169.779 167.443 168.15C168.589 166.521 170.213 162.485 170.213 162.485C168.142 163.244 165.921 163.502 163.731 163.24L163.647 161.474L158.969 166.296L163.837 170.649L163.939 169.21Z" fill="white"/>
<path d="M170.979 161.117C171.214 160.659 171.346 160.156 171.368 159.642C171.389 159.129 171.299 158.616 171.103 158.141C170.439 156.494 168.231 153.337 168.231 153.337L163.324 156.428L166.921 162.115C168.342 162.175 169.749 161.829 170.979 161.117Z" fill="white"/>
<path d="M175.112 211.154C179.44 211.154 182.949 207.653 182.949 203.335C182.949 199.016 179.44 195.516 175.112 195.516C170.784 195.516 167.275 199.016 167.275 203.335C167.275 207.653 170.784 211.154 175.112 211.154Z" fill="#455A64"/>
<path d="M187.007 126.541C187.007 126.607 173.289 126.656 156.368 126.656C139.446 126.656 125.729 126.607 125.729 126.541C125.729 126.475 139.446 126.426 156.368 126.426C173.289 126.426 187.007 126.457 187.007 126.541Z" fill="#263238"/>
<path d="M188.777 118.823C188.777 118.885 174.616 118.938 157.195 118.938C139.773 118.938 125.609 118.885 125.609 118.823C125.609 118.762 139.747 118.709 157.195 118.709C174.643 118.709 188.777 118.757 188.777 118.823Z" fill="#263238"/>
<path d="M189.56 115.79C189.498 115.768 192.985 105.075 197.352 91.8996C201.72 78.7246 205.318 68.0575 205.362 68.0839C205.406 68.1104 201.932 78.7952 197.569 91.9746C193.206 105.154 189.631 115.808 189.56 115.79Z" fill="#263238"/>
<g opacity="0.3">
<path d="M184.237 126.541C176.241 127.071 167.997 128.418 160.001 128.943C149.513 129.636 138.645 130.268 128.826 126.541H184.237Z" fill="black"/>
</g>
<path d="M111.161 195.048C111.692 195.204 112.185 195.466 112.611 195.818C113.037 196.17 113.387 196.605 113.639 197.096C114.141 198.08 114.411 199.166 114.427 200.271C114.519 202.399 113.661 204.686 112.657 206.567C110.652 205.304 109.82 202.69 109.484 201.339C108.953 199.198 109.293 195.012 111.174 195.048" fill="#455A64"/>
<path d="M115.237 209.693C115.022 209.114 114.964 208.489 115.07 207.881C115.176 207.273 115.441 206.704 115.838 206.231C116.244 205.766 116.737 205.387 117.291 205.115C117.845 204.843 118.448 204.683 119.064 204.646C119.346 204.599 119.635 204.614 119.91 204.69C120.185 204.766 120.44 204.902 120.657 205.088C120.83 205.291 120.945 205.536 120.99 205.799C121.035 206.061 121.009 206.331 120.914 206.58C120.72 207.078 120.396 207.516 119.976 207.847C118.6 209.044 117.046 209.949 115.237 209.702" fill="#455A64"/>
<path d="M113.984 216.457C113.968 216.31 113.968 216.162 113.984 216.015C113.984 215.706 113.984 215.305 114.015 214.823C114.006 213.5 114.214 212.185 114.63 210.929C115.066 209.669 115.829 208.547 116.843 207.679C117.154 207.424 117.494 207.206 117.856 207.03C117.954 206.982 118.055 206.94 118.157 206.902C118.224 206.876 118.263 206.863 118.263 206.871C117.791 207.119 117.346 207.415 116.936 207.755C115.959 208.629 115.22 209.736 114.79 210.973C114.381 212.216 114.16 213.512 114.135 214.819C114.104 215.322 114.082 215.728 114.055 216.011C114.046 216.162 114.022 216.311 113.984 216.457Z" fill="#263238"/>
<path d="M111.188 198.257C111.21 198.317 111.227 198.38 111.236 198.443C111.267 198.58 111.307 198.756 111.351 198.977C111.453 199.441 111.586 200.112 111.745 200.946C112.064 202.611 112.471 204.92 112.86 207.481C113.25 210.042 113.555 212.364 113.745 214.046C113.843 214.889 113.918 215.574 113.962 216.042C113.962 216.267 113.998 216.448 114.011 216.589C114.018 216.652 114.018 216.716 114.011 216.779C113.993 216.717 113.981 216.654 113.976 216.589C113.953 216.452 113.927 216.271 113.896 216.051C113.834 215.561 113.741 214.885 113.635 214.059C113.409 212.382 113.091 210.059 112.701 207.503C112.312 204.946 111.918 202.646 111.63 200.964C111.489 200.147 111.369 199.476 111.285 198.986C111.25 198.765 111.219 198.589 111.197 198.447C111.184 198.385 111.181 198.321 111.188 198.257Z" fill="#263238"/>
<path d="M112.387 211.446C111.974 210.212 111.273 209.094 110.341 208.185C109.409 207.276 108.273 206.601 107.028 206.218C106.395 206.028 105.599 205.962 105.183 206.479C104.767 206.995 104.997 207.759 105.329 208.333C106.046 209.513 107.098 210.455 108.35 211.04C109.603 211.625 111.001 211.828 112.369 211.622" fill="#455A64"/>
<path d="M107.625 208.152C107.762 208.177 107.897 208.212 108.028 208.258C108.178 208.302 108.326 208.355 108.47 208.417C108.647 208.492 108.851 208.558 109.063 208.669C109.299 208.779 109.53 208.901 109.754 209.035C109.997 209.172 110.245 209.344 110.501 209.525C111.052 209.935 111.554 210.406 111.997 210.929C112.433 211.459 112.807 212.037 113.112 212.651C113.241 212.92 113.354 213.195 113.453 213.477C113.541 213.721 113.617 213.97 113.679 214.223C113.734 214.431 113.777 214.641 113.807 214.854C113.84 215.013 113.86 215.174 113.869 215.335C113.885 215.472 113.885 215.61 113.869 215.746C113.833 215.746 113.802 215.159 113.555 214.254C113.489 214.005 113.409 213.761 113.316 213.521C113.214 213.245 113.097 212.976 112.966 212.713C112.661 212.112 112.29 211.546 111.86 211.026C111.424 210.514 110.934 210.049 110.4 209.64C110.147 209.459 109.908 209.282 109.669 209.145C109.431 209.008 109.205 208.876 108.997 208.766C108.209 208.346 107.616 208.187 107.625 208.152Z" fill="#263238"/>
<path d="M81.1104 198.69L80.4864 210.17C80.4864 210.17 91.9606 214.656 92.0535 216.792L69.7114 216.364L69.9548 198.452L81.1104 198.69Z" fill="#455A64"/>
<path d="M73.5966 209.066C73.3805 209.128 73.1948 209.267 73.0749 209.457C72.9549 209.646 72.9091 209.873 72.9461 210.095C73.0018 210.311 73.1378 210.499 73.3267 210.619C73.5157 210.74 73.7434 210.784 73.9638 210.744C74.1921 210.678 74.3879 210.53 74.5137 210.328C74.6395 210.127 74.6863 209.887 74.6453 209.653C74.5649 209.432 74.4024 209.251 74.1914 209.146C73.9805 209.042 73.7373 209.023 73.5125 209.092" fill="#E0E0E0"/>
<g opacity="0.6">
<path d="M69.7114 216.364L69.8088 214.563L91.1862 215.631C91.1862 215.631 92.173 216.073 92.0712 216.779L69.7114 216.364Z" fill="white"/>
</g>
<path d="M80.8492 210.055C80.8492 210.161 80.2961 210.201 79.7562 210.541C79.2164 210.881 78.9155 211.335 78.8181 211.287C78.7208 211.238 78.8934 210.62 79.5571 210.218C80.2209 209.816 80.8758 209.953 80.8492 210.055Z" fill="#263238"/>
<path d="M83.1727 211.062C83.1993 211.168 82.7302 211.344 82.3408 211.799C81.9514 212.254 81.8496 212.739 81.739 212.73C81.6284 212.722 81.5708 212.108 82.0532 211.552C82.5355 210.995 83.1727 210.96 83.1727 211.062Z" fill="#263238"/>
<path d="M84.4514 213.887C84.354 213.887 84.2124 213.362 84.5045 212.77C84.7965 212.179 85.3098 211.949 85.3541 212.042C85.3983 212.134 85.0753 212.448 84.8452 212.925C84.6151 213.402 84.562 213.878 84.4514 213.887Z" fill="#263238"/>
<path d="M80.7032 207.423C80.6545 207.521 80.1545 207.362 79.5394 207.392C78.9243 207.423 78.4376 207.609 78.3845 207.512C78.3314 207.415 78.796 207.039 79.5261 207.013C80.2563 206.986 80.774 207.34 80.7032 207.423Z" fill="#263238"/>
<path d="M73.619 198.84L73.1765 210.32C73.1765 210.32 84.7259 214.62 84.8498 216.748L62.5121 216.7L62.459 198.787L73.619 198.84Z" fill="#455A64"/>
<path d="M66.2775 209.34C66.0591 209.399 65.8717 209.54 65.754 209.733C65.6363 209.926 65.5972 210.156 65.6448 210.377C65.7033 210.592 65.8411 210.777 66.0307 210.895C66.2203 211.013 66.4476 211.055 66.6669 211.013C66.8955 210.944 67.0903 210.793 67.2137 210.589C67.3371 210.385 67.3804 210.143 67.3351 209.909C67.2522 209.689 67.0869 209.509 66.874 209.408C66.6612 209.307 66.4172 209.292 66.1935 209.366" fill="#E0E0E0"/>
<g opacity="0.6">
<path d="M62.5166 216.7L62.583 214.894L83.9737 215.618C83.9737 215.618 84.9693 216.06 84.8587 216.748L62.5166 216.7Z" fill="white"/>
</g>
<path d="M73.5435 210.205C73.5435 210.315 72.9948 210.364 72.4594 210.713C71.9239 211.062 71.6319 211.516 71.5345 211.477C71.4372 211.437 71.5965 210.801 72.2558 210.39C72.9151 209.98 73.5701 210.108 73.5435 210.205Z" fill="#263238"/>
<path d="M75.9064 211.181C75.933 211.282 75.4639 211.468 75.0878 211.927C74.7117 212.386 74.6099 212.872 74.4993 212.867C74.3887 212.863 74.3223 212.249 74.7958 211.684C75.2692 211.119 75.9064 211.075 75.9064 211.181Z" fill="#263238"/>
<path d="M77.2077 213.962C77.1103 213.962 76.9599 213.441 77.2431 212.845C77.5263 212.249 78.0352 212.015 78.0794 212.104C78.1237 212.192 77.8095 212.514 77.5838 212.987C77.3581 213.459 77.3183 213.962 77.2077 213.962Z" fill="#263238"/>
<path d="M73.3533 207.578C73.3091 207.679 72.809 207.529 72.1895 207.578C71.57 207.627 71.0921 207.812 71.0346 207.715C70.9771 207.618 71.4417 207.238 72.1674 207.198C72.8931 207.158 73.4064 207.494 73.3533 207.578Z" fill="#263238"/>
<path d="M53.5112 116.85L54.2679 125.892L59.6444 160.922C59.6444 160.922 59.5559 178.142 59.432 187.855C59.3258 196.302 61.8657 210.779 61.8657 210.779L76.0259 209.605L77.0393 160.538L77.6499 129.928L81.9688 115.658L53.5112 116.85Z" fill="#263238"/>
<path d="M92.2794 162.499L90.9121 118.788C90.8929 118.188 90.6433 117.619 90.2151 117.197C89.7868 116.775 89.2125 116.534 88.611 116.523L73.4198 116.236C73.1074 116.231 72.7971 116.289 72.5073 116.406C72.2175 116.522 71.954 116.695 71.7322 116.915C71.5104 117.135 71.3348 117.396 71.2158 117.685C71.0968 117.973 71.0367 118.282 71.0391 118.594L71.9684 201.816C71.9746 202.37 72.1778 202.903 72.5417 203.321C72.9056 203.74 73.4066 204.015 73.9552 204.099L82.4204 204.823L91.6865 167.161C92.1326 165.649 92.3328 164.074 92.2794 162.499Z" fill="#263238"/>
<path d="M77.641 130.285C77.6552 130.352 77.6627 130.42 77.6631 130.488C77.6631 130.634 77.6852 130.837 77.7029 131.089C77.7295 131.632 77.7693 132.413 77.8224 133.398C77.933 135.407 78.0304 138.312 78.1277 141.902C78.2959 149.081 78.3224 159.011 77.9861 169.965C77.6498 180.919 77.1321 190.835 76.7383 198.01C76.5303 201.582 76.3621 204.478 76.2471 206.501C76.1851 207.49 76.1365 208.267 76.1011 208.81C76.1011 209.061 76.0657 209.251 76.0568 209.406C76.0536 209.476 76.0447 209.545 76.0303 209.613C76.0244 209.544 76.0244 209.475 76.0303 209.406C76.0303 209.26 76.0303 209.057 76.0303 208.805C76.0524 208.262 76.0834 207.481 76.1276 206.496C76.225 204.474 76.3621 201.573 76.5347 197.997C76.8799 190.827 77.3843 180.915 77.7029 169.96C78.0215 159.006 78.0437 149.085 77.9198 141.906C77.849 138.317 77.7826 135.411 77.7029 133.403C77.672 132.409 77.6498 131.636 77.6321 131.093C77.6321 130.837 77.6321 130.652 77.6321 130.488C77.6303 130.421 77.6332 130.353 77.641 130.285Z" fill="#455A64"/>
<path d="M73.0567 44.0166L70.7689 65.1302C70.3264 68.7241 69.6361 74.0533 75.371 74.5257C80.3801 74.561 82.2342 70.0443 82.6635 66.6887C82.867 65.0948 83.0396 63.7659 83.0706 63.5981C83.0706 63.5981 88.5311 63.7835 89.6108 58.5074C90.1285 55.9554 90.7746 50.613 91.2968 45.7695C91.5691 43.2624 90.8846 40.7449 89.3797 38.7188C87.8748 36.6928 85.66 35.3069 83.1768 34.8374L82.6679 34.7403C77.0879 34.0162 73.6319 38.4314 73.0567 44.0166Z" fill="#FFCCB3"/>
<path d="M83.084 63.6069C80.6352 63.1337 78.3734 61.9708 76.5659 60.2558C76.5659 60.2558 77.5129 64.4414 82.8982 64.9712L83.084 63.6069Z" fill="#4DA247"/>
<path d="M82.1903 47.2662C82.0708 47.2662 81.584 46.8247 80.7433 46.4936C79.9025 46.1624 79.1857 46.158 79.1193 46.0521C79.0529 45.9461 79.2299 45.9461 79.5618 45.9461C80.0172 45.957 80.4669 46.0498 80.8893 46.2198C81.3029 46.3744 81.683 46.6067 82.0088 46.9042C82.208 47.1249 82.2478 47.2574 82.1903 47.2662Z" fill="#263238"/>
<path d="M81.5883 49.1295C81.5518 49.3117 81.4476 49.4735 81.2966 49.5823C81.1456 49.6912 80.959 49.7392 80.7741 49.7167C80.6816 49.7063 80.5921 49.6777 80.5109 49.6323C80.4296 49.587 80.3582 49.526 80.3009 49.4528C80.2437 49.3796 80.2016 49.2957 80.1772 49.206C80.1528 49.1164 80.1467 49.0228 80.159 48.9308C80.1926 48.7441 80.2979 48.5778 80.4524 48.4673C80.6069 48.3568 80.7985 48.3109 80.9865 48.3391C81.1713 48.3643 81.3386 48.4618 81.4514 48.61C81.5643 48.7582 81.6135 48.945 81.5883 49.1295Z" fill="#263238"/>
<path d="M83.5708 53.3945C84.0247 53.3354 84.4843 53.3354 84.9381 53.3945C85.1505 53.3945 85.3541 53.3945 85.416 53.2753C85.482 53.0655 85.482 52.8405 85.416 52.6307C85.3143 52.0921 85.2081 51.5269 85.1019 50.9353C84.6594 48.5202 84.4116 46.551 84.5089 46.5201C84.6063 46.4892 85.0311 48.4495 85.4559 50.8602C85.5532 51.4563 85.6506 52.0214 85.7391 52.5645C85.8239 52.8394 85.8066 53.1357 85.6904 53.399C85.6475 53.4671 85.589 53.5243 85.5198 53.5657C85.4506 53.6071 85.3726 53.6317 85.2921 53.6374C85.1718 53.6539 85.0497 53.6539 84.9293 53.6374C84.4676 53.6178 84.0106 53.5361 83.5708 53.3945Z" fill="#263238"/>
<path d="M82.0573 43.5354C81.9467 43.7208 81.2475 43.4912 80.3846 43.4338C79.5217 43.3764 78.796 43.4868 78.7164 43.2837C78.681 43.1866 78.8359 43.0188 79.1589 42.8775C79.5682 42.708 80.0118 42.6368 80.4538 42.6698C80.8958 42.7028 81.3238 42.839 81.7033 43.0674C81.9821 43.2396 82.1015 43.425 82.0573 43.5354Z" fill="#263238"/>
<path d="M90.372 46.158C90.257 46.3081 89.58 46.0476 88.7348 45.924C87.8896 45.8004 87.1771 45.8269 87.1063 45.6459C87.0754 45.562 87.2347 45.4339 87.5488 45.3368C87.9645 45.2267 88.3988 45.2057 88.8233 45.275C89.254 45.3356 89.6671 45.486 90.0357 45.7165C90.3012 45.9108 90.4207 46.083 90.372 46.158Z" fill="#263238"/>
<path d="M72.7381 48.0919C72.6452 48.0345 69.0786 46.3258 68.5741 50.167C68.0697 54.0083 72.0345 53.6992 72.0567 53.6065C72.0788 53.5138 72.7381 48.0919 72.7381 48.0919Z" fill="#FFCCB3"/>
<path d="M71.07 51.9993C71.07 51.9993 70.9992 52.0391 70.8797 52.0744C70.7108 52.1199 70.531 52.101 70.3753 52.0214C69.9903 51.8183 69.7337 51.1384 69.8045 50.4364C69.8377 50.1062 69.9451 49.7878 70.1186 49.5047C70.171 49.3906 70.2502 49.2909 70.3497 49.214C70.4491 49.1371 70.5657 49.0854 70.6895 49.0632C70.769 49.0531 70.8496 49.0709 70.9175 49.1136C70.9853 49.1563 71.0361 49.2212 71.0612 49.2972C71.0966 49.412 71.0612 49.4827 71.0612 49.4915C71.0612 49.5003 71.1541 49.4385 71.1408 49.2752C71.1311 49.1775 71.0891 49.0858 71.0214 49.0147C70.925 48.9221 70.7967 48.8699 70.6629 48.869C70.5015 48.8799 70.3456 48.9318 70.21 49.02C70.0744 49.1081 69.9638 49.2294 69.8885 49.3723C69.6806 49.6842 69.5516 50.0417 69.5124 50.4143C69.4372 51.1869 69.7381 51.964 70.2735 52.1804C70.3708 52.2273 70.4774 52.2516 70.5855 52.2516C70.6935 52.2516 70.8002 52.2273 70.8974 52.1804C71.039 52.0921 71.0833 52.0082 71.07 51.9993Z" fill="#4DA247"/>
<path d="M83.4294 55.9554C83.4294 55.8538 82.7037 55.7567 82.1019 55.1739C81.847 54.9073 81.6256 54.6108 81.4425 54.2908C81.2965 54.0436 81.1859 53.8935 81.1505 53.9111C81.1151 53.9288 81.1505 54.1054 81.2567 54.3835C81.3988 54.7541 81.6192 55.0899 81.9027 55.3681C82.1916 55.6486 82.5533 55.8429 82.9471 55.9289C83.217 56.0083 83.4294 55.9863 83.4294 55.9554Z" fill="#263238"/>
<path d="M90.0401 47.9506C89.9428 48.0256 89.2923 47.8888 88.4029 48.0477C87.5134 48.2067 86.8939 48.5555 86.7877 48.5157C86.6815 48.476 86.832 48.3789 87.1019 48.2155C87.5003 47.9942 87.9347 47.8448 88.3852 47.774C88.8238 47.6912 89.2741 47.6912 89.7127 47.774C89.9826 47.849 90.0667 47.9506 90.0401 47.9506Z" fill="#263238"/>
<path d="M88.9297 50.1891C88.8961 50.3758 88.7909 50.5421 88.6364 50.6525C88.4818 50.763 88.2902 50.809 88.1022 50.7807C88.0097 50.7704 87.9202 50.7417 87.839 50.6964C87.7577 50.6511 87.6864 50.59 87.6291 50.5168C87.5718 50.4436 87.5297 50.3597 87.5053 50.2701C87.481 50.1805 87.4748 50.0869 87.4871 49.9948C87.5207 49.8081 87.626 49.6419 87.7805 49.5314C87.935 49.4209 88.1267 49.3749 88.3146 49.4032C88.4071 49.4135 88.4966 49.4422 88.5779 49.4875C88.6591 49.5328 88.7305 49.5939 88.7878 49.6671C88.8451 49.7403 88.8872 49.8242 88.9115 49.9138C88.9359 50.0035 88.9421 50.097 88.9297 50.1891Z" fill="#263238"/>
<path d="M99.0941 41.8267C99.0537 41.6056 98.9302 41.4082 98.749 41.2748C98.3478 41.0336 97.8898 40.9026 97.4215 40.8951C96.2605 40.7357 95.1505 40.3177 94.1735 39.6721C94.5565 39.5348 94.9161 39.3397 95.2399 39.0937C95.5814 38.8452 95.8478 38.5079 96.0102 38.1186C96.1725 37.7292 96.2244 37.3029 96.1603 36.8861C96.1518 36.8084 96.1254 36.7337 96.0832 36.6678C96.041 36.6019 95.9841 36.5467 95.9169 36.5064C95.6868 36.4048 95.4523 36.6123 95.2665 36.7801C95.0217 37.0443 94.7097 37.2372 94.3637 37.3383C94.0177 37.4394 93.6506 37.4449 93.3017 37.3541C92.8225 37.2645 92.3691 37.07 91.9742 36.7845L91.9344 36.7271L91.4432 36.1002C90.2263 34.5814 89.151 33.4996 87.9917 32.8727C86.2924 31.9499 83.3409 31.3141 81.4249 31.5834C79.5088 31.8528 77.6636 33.1685 77.1857 35.0405C76.2431 34.0383 74.6767 33.8661 73.3491 34.2281H73.3182C71.8446 34.5681 70.8667 35.9633 70.2826 37.3541L70.1897 37.5881C69.6233 38.293 68.8967 38.8531 68.07 39.2217C67.924 39.2835 67.7559 39.363 67.7249 39.5176C67.7178 39.5965 67.7322 39.6758 67.7665 39.7473C67.8007 39.8187 67.8536 39.8797 67.9196 39.9237C68.2342 40.2041 68.6077 40.4107 69.0126 40.5286C68.8443 40.8577 68.649 41.1723 68.4285 41.4691C68.2382 41.7207 68.0081 42.021 68.1143 42.3168C68.1667 42.4272 68.2514 42.5193 68.3573 42.5807C68.4631 42.6422 68.5851 42.6703 68.7073 42.6612C68.9517 42.6365 69.1883 42.5613 69.402 42.4404L68.7958 43.5133C69.3001 43.6608 69.8321 43.6881 70.349 43.5928C70.4479 44.9641 70.6222 46.329 70.8711 47.6813C71.4641 47.7475 72.0393 47.6813 72.3668 48.0433C72.8093 48.5466 72.9332 49.4076 73.7961 49.1869C74.2386 49.0721 74.7165 48.242 74.9068 47.8314C76.1644 45.0984 76.8179 42.1274 76.8228 39.1202C77.4834 38.563 78.245 38.1373 79.0663 37.8663L78.9955 37.9192C80.5487 37.5749 82.301 37.2614 83.633 38.1223C84.6729 38.7935 85.1862 40.0076 85.903 41.0099C86.5242 41.9251 87.3299 42.7009 88.2686 43.2878C89.2073 43.8747 90.2584 44.2598 91.3547 44.4184C91.3768 46.0521 90.9653 48.0742 90.8724 49.5842L92.545 47.3236C92.6643 47.1632 92.7751 46.9967 92.8769 46.8247L92.9123 46.7717C93.0727 46.4939 93.247 46.2242 93.4345 45.9637C93.5923 46.1293 93.8048 46.2323 94.0328 46.2535C94.2608 46.2747 94.4888 46.2128 94.6746 46.0792C94.8603 45.9455 94.9912 45.7493 95.0431 45.5268C95.095 45.3042 95.0643 45.0705 94.9567 44.8688C94.8479 44.6796 94.7123 44.5071 94.554 44.3566C94.7171 44.5562 94.9291 44.7102 95.1694 44.8038C95.4098 44.8975 95.6704 44.9274 95.9258 44.8909C96.1807 44.8448 96.4131 44.7159 96.5868 44.5242C96.7605 44.3325 96.8657 44.0888 96.886 43.8312C96.8908 43.6526 96.8468 43.4761 96.7587 43.3205C96.6706 43.1649 96.5418 43.0362 96.386 42.9482C97.0432 43.0778 97.7243 43.0086 98.3419 42.7495C98.7578 42.6214 99.1693 42.3124 99.0941 41.8267Z" fill="#263238"/>
<path d="M78.7828 35.8485C78.5759 35.983 78.3779 36.1304 78.1898 36.29C77.709 36.7521 77.3555 37.3299 77.1632 37.9678C77.0198 38.3982 76.9205 38.842 76.8667 39.2924C76.8092 39.7869 76.7871 40.3167 76.7605 40.873C76.7439 41.4646 76.6892 42.0545 76.5968 42.6391C76.5441 42.9474 76.4687 43.2514 76.3711 43.5486C76.2904 43.8632 76.1304 44.1519 75.9065 44.3875C75.8017 44.4809 75.6745 44.5454 75.5371 44.5748C75.3998 44.6042 75.2572 44.5975 75.1233 44.5553C74.8686 44.4808 74.645 44.3259 74.4861 44.1138C74.2432 43.683 74.1209 43.195 74.1321 42.7009L74.2427 42.7274C74.0336 43.1108 73.7698 43.4618 73.4595 43.7694C73.1606 44.0519 72.7649 44.2098 72.3532 44.2109C72.1619 44.2054 71.9755 44.149 71.8133 44.0476C71.6634 43.9476 71.5476 43.8044 71.4815 43.6369C71.4191 43.4831 71.3992 43.3154 71.4239 43.1513C71.4475 42.9978 71.5261 42.8582 71.6452 42.7583L71.6939 42.8113C71.329 43.1405 70.8974 43.3875 70.4283 43.5354C70.3065 43.5753 70.1823 43.6077 70.0566 43.6325C70.0124 43.6369 69.968 43.6369 69.9238 43.6325C69.9649 43.6144 70.008 43.6011 70.0522 43.5928C70.1362 43.5928 70.2601 43.5354 70.415 43.478C70.8649 43.3142 71.2772 43.062 71.6275 42.7362L71.6762 42.7936C71.5747 42.8945 71.5077 43.0248 71.4846 43.1659C71.4616 43.307 71.4837 43.4517 71.5478 43.5795C71.6089 43.7291 71.7138 43.8568 71.8487 43.946C71.9966 44.0362 72.1666 44.0836 72.3399 44.0829C72.7267 44.0746 73.0949 43.9162 73.3665 43.6414C73.6696 43.3504 73.9289 43.0173 74.1365 42.6523L74.2338 42.489V42.6788C74.229 43.1487 74.348 43.6116 74.579 44.0211C74.7185 44.2182 74.9191 44.364 75.1498 44.4361C75.2633 44.4716 75.384 44.4772 75.5003 44.4525C75.6166 44.4277 75.7245 44.3734 75.8136 44.2948C76.0263 44.0699 76.1785 43.795 76.2561 43.4957C76.3544 43.2077 76.4298 42.9124 76.4818 42.6126C76.5731 42.0367 76.6293 41.4557 76.6499 40.873C76.6809 40.3167 76.703 39.7825 76.7694 39.2835C76.8284 38.8224 76.9336 38.3683 77.0836 37.9281C77.2866 37.2812 77.6594 36.7004 78.1633 36.2459C78.3466 36.0805 78.5559 35.9463 78.7828 35.8485Z" fill="#455A64"/>
<path d="M94.7221 42.957L94.6734 42.9879L94.5274 43.0674C94.4504 43.115 94.3689 43.1549 94.284 43.1866C94.1733 43.2412 94.0578 43.2856 93.9389 43.319C93.1849 43.5631 92.3816 43.6147 91.6024 43.4692C90.4408 43.2562 89.3653 42.7135 88.5049 41.9062C87.4727 40.904 86.6566 39.7021 86.1065 38.374C85.7923 37.6808 85.549 36.9832 85.2746 36.3298C85.0228 35.6969 84.6832 35.1023 84.2657 34.5637C83.8901 34.0793 83.3986 33.6968 82.8364 33.4511C82.5787 33.3497 82.3072 33.2872 82.031 33.2656C81.7774 33.2507 81.5229 33.2701 81.2744 33.323C80.8421 33.4155 80.4348 33.5991 80.0796 33.8617C79.8127 34.0616 79.5784 34.3013 79.3849 34.5725C79.2324 34.8132 79.1092 35.0711 79.0176 35.3408C79.0176 35.3408 79.0176 35.3408 79.0176 35.2878C79.0176 35.2348 79.0441 35.1906 79.0618 35.1244C79.1305 34.9217 79.2226 34.7276 79.3362 34.546C79.5307 34.2675 79.7699 34.0229 80.0442 33.8219C80.4035 33.5451 80.8187 33.3493 81.2611 33.248C81.5196 33.1918 81.7844 33.1695 82.0487 33.1817C82.3344 33.2005 82.6152 33.2646 82.8807 33.3716C83.4637 33.6174 83.9741 34.008 84.363 34.5063C84.7899 35.0426 85.1371 35.6374 85.3941 36.2724C85.6773 36.9302 85.9162 37.6278 86.226 38.3122C86.7736 39.6171 87.5787 40.7988 88.5934 41.787C89.4318 42.586 90.4822 43.1285 91.6201 43.35C92.3859 43.5008 93.1769 43.4644 93.9256 43.244C94.196 43.1625 94.4619 43.0667 94.7221 42.957Z" fill="#455A64"/>
<path d="M95.4789 40.6699C95.4133 40.7135 95.3437 40.7504 95.2709 40.7803C95.0762 40.869 94.875 40.9428 94.6691 41.0011C94.3654 41.0909 94.0545 41.1544 93.7398 41.1909C93.3513 41.2289 92.9601 41.2289 92.5716 41.1909C92.1822 41.1566 91.797 41.0857 91.4211 40.979C91.1174 40.8897 90.8214 40.776 90.5361 40.639C90.3442 40.5467 90.1593 40.4404 89.9829 40.3211C89.859 40.2328 89.7927 40.1843 89.7971 40.1754C89.8015 40.1666 90.0891 40.3432 90.5759 40.5595C90.8633 40.6831 91.159 40.7864 91.4609 40.8686C91.8309 40.9657 92.2083 41.0322 92.5893 41.0673C92.9707 41.0984 93.354 41.0984 93.7354 41.0673C94.0457 41.0373 94.3534 40.9842 94.6558 40.9083C95.1647 40.7847 95.47 40.6478 95.4789 40.6699Z" fill="#455A64"/>
<path d="M46.5332 81.9212C46.5332 81.9212 52.7681 62.8343 60.1226 63.2405L71.0082 62.9181C71.0082 62.9181 73.0924 68.4636 77.0882 68.8433C81.084 69.2231 82.6638 66.6887 82.6638 66.6887C82.6638 66.6887 94.0495 71.1746 95.4478 75.9253C96.8461 80.6761 95.7841 93.3477 95.7841 93.3477L87.9827 92.9415L88.465 103.097L92.337 122.775L53.069 123.548L54.1753 93.0828L55.3745 84.3584L46.5332 81.9212Z" fill="#455A64"/>
<path d="M57.7639 71.2231C57.7656 71.4226 57.7418 71.6214 57.6931 71.8148C57.6091 72.2563 57.5117 72.7817 57.3967 73.4131C57.1444 74.7597 56.7993 76.6229 56.4541 78.6848C56.109 80.7467 55.8258 82.6232 55.6266 83.9831C55.5293 84.6145 55.4496 85.1531 55.3833 85.5902C55.3644 85.79 55.3228 85.987 55.2594 86.1774C55.2352 85.978 55.2352 85.7764 55.2594 85.577C55.2859 85.1929 55.339 84.641 55.4142 83.9566C55.5647 82.5923 55.8169 80.7114 56.1621 78.6583C56.5072 76.6053 56.8878 74.7332 57.1887 73.391C57.3391 72.7199 57.4719 72.1812 57.5692 71.8104C57.6104 71.6076 57.6758 71.4104 57.7639 71.2231Z" fill="#263238"/>
<path d="M87.9825 92.9415C87.9825 92.9415 87.54 101.03 90.757 103.317C92.2527 104.377 98.9965 104.355 98.9965 104.355L95.7839 93.3477L87.9825 92.9415Z" fill="#FFCCB3"/>
<g opacity="0.3">
<path d="M88.2435 98.7255C89.6314 93.7492 90.7145 88.6933 91.4871 83.5857C90.425 85.3121 89.2745 89.1754 88.3585 91.7097C87.6505 93.6921 88.0001 95.7938 88.2479 98.5489" fill="black"/>
</g>
<path d="M92.3369 81.5768C92.1408 82.1587 91.9088 82.7278 91.6422 83.2811C91.1997 84.3231 90.589 85.7668 89.9739 87.3872C89.3588 89.0076 88.8499 90.4779 88.4959 91.564C88.3286 92.155 88.1231 92.7346 87.8809 93.2992C87.886 93.1327 87.9143 92.9678 87.9649 92.8091C88.0357 92.5 88.1508 92.0541 88.3101 91.5066C88.6198 90.4116 89.0977 88.9149 89.7128 87.2901C90.3279 85.6653 90.9695 84.2259 91.4829 83.2016C91.7307 82.6894 91.9254 82.2788 92.0891 81.9963C92.1511 81.8453 92.2345 81.704 92.3369 81.5768Z" fill="#263238"/>
<path d="M81.615 100.341C81.4857 100.506 81.3371 100.654 81.1725 100.783C80.8716 101.052 80.4247 101.436 79.8716 101.9C78.7653 102.832 77.2165 104.086 75.4465 105.432C73.6765 106.779 72.0658 107.936 70.871 108.757C70.278 109.167 69.7913 109.49 69.4506 109.71C69.2793 109.835 69.0954 109.942 68.9019 110.028C69.0485 109.875 69.2118 109.739 69.3886 109.622L70.7604 108.598C71.9197 107.715 73.526 106.549 75.2784 105.211C77.0307 103.874 78.606 102.651 79.7432 101.759L81.0973 100.708C81.2571 100.569 81.4306 100.446 81.615 100.341Z" fill="#263238"/>
<path d="M117.67 69.6646L111.949 63.2802C111.712 63.0146 111.405 62.8204 111.063 62.7195L105.882 61.311C105.597 61.2348 105.298 61.2262 105.009 61.2861C104.72 61.3459 104.449 61.4723 104.218 61.6554L99.2088 65.6291C98.8978 65.8775 98.6733 66.2174 98.5671 66.6004L93.9828 83.4224C93.9179 83.6604 93.9008 83.9088 93.9324 84.1535C93.9641 84.3981 94.0439 84.6341 94.1673 84.8479C94.2906 85.0616 94.4551 85.249 94.6513 85.3991C94.8474 85.5492 95.0714 85.6592 95.3103 85.7227L111.094 90.0054C111.333 90.0701 111.581 90.0871 111.826 90.0555C112.071 90.0238 112.307 89.9442 112.521 89.821C112.735 89.6979 112.923 89.5338 113.073 89.3381C113.223 89.1424 113.332 88.9191 113.395 88.6809L118.113 71.3865C118.188 71.0854 118.187 70.7703 118.11 70.4696C118.033 70.169 117.881 69.8923 117.67 69.6646ZM114.94 71.7839C114.804 71.9048 114.646 71.9979 114.474 72.0577C114.302 72.1176 114.121 72.1432 113.939 72.1329C113.757 72.1227 113.58 72.0768 113.416 71.998C113.252 71.9192 113.105 71.8089 112.984 71.6735L109.347 67.6159C109.226 67.4809 109.132 67.3234 109.072 67.1524C109.012 66.9814 108.987 66.8003 108.997 66.6195C109.007 66.4386 109.053 66.2616 109.132 66.0984C109.211 65.9353 109.322 65.7893 109.457 65.6688C109.73 65.4254 110.089 65.3 110.455 65.3198C110.821 65.3397 111.164 65.5033 111.409 65.7748L115.046 69.8368C115.168 69.972 115.262 70.1299 115.323 70.3015C115.384 70.4731 115.41 70.655 115.4 70.8368C115.39 71.0185 115.345 71.1965 115.266 71.3606C115.187 71.5246 115.076 71.6715 114.94 71.7927V71.7839Z" fill="#455A64"/>
<path d="M111.326 60.9502L106.429 59.6207L105.959 61.3419L110.857 62.6714L111.326 60.9502Z" fill="#455A64"/>
<path d="M112.203 59.7811L106.127 58.1316C105.87 58.0619 105.604 58.2132 105.535 58.4697L105.158 59.85C105.088 60.1065 105.24 60.371 105.497 60.4407L111.573 62.0902C111.83 62.1599 112.095 62.0086 112.165 61.7521L112.541 60.3718C112.611 60.1153 112.46 59.8508 112.203 59.7811Z" fill="#263238"/>
<path d="M93.8548 81.983C93.8518 81.7768 93.7833 81.5768 93.6593 81.4118C93.5353 81.2468 93.3621 81.1253 93.1645 81.0646C93.2625 81.0553 93.3574 81.0257 93.4433 80.9777C93.5292 80.9296 93.6041 80.8643 93.6632 80.7857C93.7223 80.7072 93.7644 80.6173 93.7867 80.5216C93.8091 80.4259 93.8111 80.3267 93.7928 80.2302C93.7928 80.0245 93.7363 79.8227 93.6294 79.6468C93.5225 79.4709 93.3694 79.3275 93.1866 79.2323C93.3773 79.1842 93.5433 79.0673 93.6528 78.9043C93.7623 78.7412 93.8074 78.5436 93.7796 78.3493C93.7176 77.5943 92.8946 77.4883 92.8946 77.4883C92.8946 77.4883 93.6512 77.4265 93.6557 76.7289C93.6601 76.0313 92.8547 75.8812 92.8547 75.8812L93.5185 75.0953L93.3061 72.5212C93.2935 72.3821 93.2515 72.2472 93.1828 72.1254C93.1142 72.0037 93.0205 71.8978 92.9078 71.8148L90.4962 70.0487L87.4783 70.3004L87.0358 70.3357L84.9516 72.4947C84.8546 72.5956 84.78 72.7158 84.7327 72.8474C84.6854 72.979 84.6665 73.1192 84.6772 73.2586L84.8941 75.8326L85.6773 76.4949C85.6773 76.4949 84.9118 76.7775 85.0312 77.4663C85.0748 77.6612 85.1896 77.833 85.3532 77.9481C85.5168 78.0632 85.7176 78.1133 85.9162 78.0888C85.6998 78.1492 85.5095 78.2795 85.375 78.4592C85.2405 78.6389 85.1694 78.858 85.1728 79.0822C85.1744 79.2816 85.2506 79.4733 85.3865 79.6195C85.5224 79.7658 85.7082 79.856 85.9074 79.8725C85.7415 79.9942 85.6124 80.1591 85.5344 80.3491C85.4563 80.5392 85.4323 80.747 85.4649 80.9499C85.4629 81.0481 85.4813 81.1458 85.519 81.2366C85.5567 81.3274 85.6129 81.4095 85.684 81.4775C85.7552 81.5456 85.8396 81.5982 85.9322 81.632C86.0247 81.6658 86.1232 81.6801 86.2216 81.6739C86.0371 81.7667 85.8868 81.9153 85.7922 82.0985C85.6976 82.2817 85.6636 82.4902 85.695 82.6939C85.6886 82.8944 85.7509 83.0911 85.8716 83.2516C85.9922 83.4121 86.164 83.5268 86.3587 83.5769L85.6153 84.5306L86.0578 89.9745C86.1891 90.3083 86.4299 90.5879 86.7409 90.7675C87.052 90.9472 87.4149 91.0163 87.7703 90.9635C88.1257 90.9537 88.4647 90.8128 88.7221 90.5682C88.9795 90.3236 89.137 89.9926 89.1642 89.639C89.1642 89.639 89.2837 90.8267 90.39 90.756H90.536C91.6423 90.6456 91.5626 89.4535 91.5626 89.4535C91.646 89.8002 91.8559 90.1035 92.1512 90.3043C92.4465 90.5051 92.8061 90.589 93.1601 90.5397C93.5187 90.5316 93.8642 90.403 94.1404 90.1746C94.4167 89.9462 94.6076 89.6315 94.6823 89.2813L94.2398 83.833L93.3548 83.0162C93.5478 82.9316 93.7042 82.7811 93.7959 82.5917C93.8875 82.4023 93.9084 82.1864 93.8548 81.983Z" fill="#E0E0E0"/>
<path d="M90.3146 68.141L86.8794 68.4264C86.7235 68.4393 86.6077 68.5759 86.6207 68.7314L86.7308 70.0514C86.7438 70.2069 86.8807 70.3225 87.0366 70.3096L90.4718 70.0242C90.6277 70.0112 90.7435 69.8746 90.7305 69.7191L90.6203 68.3991C90.6074 68.2436 90.4705 68.128 90.3146 68.141Z" fill="#263238"/>
<path d="M92.8411 75.8724C91.6207 76.0876 90.3882 76.2277 89.1506 76.2918C87.9183 76.433 86.6784 76.4979 85.438 76.4861C86.6581 76.2646 87.8905 76.1172 89.1285 76.0446C90.3612 75.9092 91.6012 75.8517 92.8411 75.8724Z" fill="#263238"/>
<path d="M93.4476 75.0865C92.0353 75.3208 90.6113 75.4785 89.1819 75.5589C87.7595 75.716 86.3295 75.7956 84.8984 75.7973C86.3167 75.5631 87.7466 75.4054 89.1819 75.3249C90.5985 75.1697 92.0225 75.0901 93.4476 75.0865Z" fill="#263238"/>
<path d="M93.0668 77.5325C91.8539 77.7476 90.6287 77.8877 89.3984 77.9519C88.1765 78.0932 86.9469 78.158 85.7168 78.1462C86.9276 77.9221 88.1513 77.7746 89.3807 77.7047C90.6047 77.572 91.8358 77.5145 93.0668 77.5325Z" fill="#263238"/>
<path d="M93.204 79.1749C91.9925 79.3899 90.7689 79.53 89.5401 79.5944C88.3167 79.7356 87.0855 79.799 85.854 79.7842C87.0659 79.5719 88.2894 79.4319 89.518 79.3648C90.7416 79.2263 91.9726 79.1629 93.204 79.1749Z" fill="#263238"/>
<path d="M93.3544 81.0072C92.143 81.2229 90.9193 81.363 89.6904 81.4267C88.4685 81.5679 87.2388 81.6313 86.0088 81.6165C87.2202 81.4012 88.4439 81.2611 89.6727 81.1971C90.8949 81.0586 92.1244 80.9952 93.3544 81.0072Z" fill="#263238"/>
<path d="M93.5097 82.8307C92.2982 83.0457 91.0745 83.1858 89.8457 83.2502C88.6221 83.3888 87.3911 83.4522 86.1597 83.44C87.3722 83.2175 88.5973 83.07 89.828 82.9985C91.0504 82.8647 92.2801 82.8086 93.5097 82.8307Z" fill="#263238"/>
<path d="M94.2397 83.8153C92.8151 84.0472 91.3795 84.2049 89.9385 84.2877C88.503 84.4476 87.0597 84.5286 85.6152 84.5306C87.0398 84.2987 88.4754 84.141 89.9164 84.0581C91.3522 83.9009 92.7953 83.8198 94.2397 83.8153Z" fill="#263238"/>
<path d="M103.656 75.4043C103.672 75.1668 103.611 74.9305 103.483 74.7297C103.355 74.5289 103.166 74.3739 102.944 74.2873C103.057 74.2843 103.168 74.2579 103.271 74.2099C103.373 74.1618 103.464 74.0931 103.539 74.008C103.613 73.923 103.669 73.8234 103.703 73.7157C103.737 73.608 103.748 73.4944 103.736 73.3822C103.75 73.1461 103.7 72.9106 103.592 72.7002C103.484 72.4898 103.321 72.3122 103.121 72.1857C103.347 72.1457 103.549 72.0231 103.689 71.8418C103.829 71.6605 103.896 71.4336 103.877 71.2055C103.877 70.3224 102.913 70.1414 102.913 70.1414C102.913 70.1414 103.798 70.1414 103.851 69.3334C103.904 68.5254 103.001 68.2914 103.001 68.2914L103.829 67.4437L103.793 64.4679C103.791 64.3075 103.755 64.1493 103.687 64.0039C103.62 63.8585 103.521 63.7292 103.4 63.6246L100.771 61.3772L97.2841 61.417H96.7841L94.2087 63.7261C94.0894 63.8337 93.9942 63.9652 93.9294 64.1121C93.8645 64.2589 93.8315 64.4178 93.8325 64.5783L93.8679 67.5541L94.7176 68.3798C94.7176 68.3798 93.8325 68.6447 93.8901 69.4438C93.9246 69.6695 94.0411 69.8747 94.2173 70.0204C94.3935 70.1661 94.6172 70.2422 94.8459 70.2341C94.592 70.2862 94.3624 70.4205 94.1927 70.616C94.0231 70.8116 93.9229 71.0576 93.9078 71.3159C93.894 71.5448 93.9661 71.7706 94.11 71.9494C94.254 72.1281 94.4596 72.247 94.6866 72.2828C94.4878 72.4112 94.328 72.5914 94.2243 72.8038C94.1206 73.0162 94.0769 73.2528 94.098 73.4881C94.0896 73.6003 94.1043 73.7131 94.1412 73.8194C94.1782 73.9256 94.2367 74.0232 94.3131 74.106C94.3894 74.1888 94.482 74.2551 94.5851 74.3007C94.6881 74.3463 94.7995 74.3703 94.9123 74.3712C94.692 74.4635 94.5066 74.623 94.3826 74.8268C94.2586 75.0306 94.2024 75.2683 94.2219 75.5059C94.2014 75.7347 94.2582 75.9638 94.3834 76.1566C94.5085 76.3494 94.6946 76.495 94.9123 76.57L93.983 77.6075L94.0538 83.9036C94.1782 84.297 94.432 84.6369 94.7741 84.8685C95.1162 85.1 95.5266 85.2097 95.9389 85.1796C96.3498 85.198 96.7528 85.063 97.0694 84.8009C97.386 84.5389 97.5935 84.1687 97.6514 83.7623C97.6514 83.7623 97.6912 85.1355 98.9789 85.1443H99.147C100.426 85.1046 100.435 83.727 100.435 83.727C100.501 84.1325 100.716 84.4987 101.039 84.7543C101.361 85.0098 101.767 85.1363 102.178 85.109C102.592 85.129 103 85.009 103.336 84.7686C103.673 84.5282 103.918 84.1814 104.032 83.7844L103.957 77.4883L103.001 76.4728C103.214 76.3928 103.394 76.2442 103.512 76.0507C103.631 75.8572 103.682 75.6297 103.656 75.4043Z" fill="#E0E0E0"/>
<path d="M103.001 68.3003C101.579 68.4303 100.151 68.4848 98.7224 68.4636C97.2959 68.5196 95.8674 68.4975 94.4434 68.3974C95.8658 68.2671 97.2941 68.2126 98.7224 68.2341C100.149 68.1781 101.577 68.2002 103.001 68.3003Z" fill="#263238"/>
<path d="M103.785 67.4481C103.785 67.5144 101.572 67.5894 98.8417 67.6203C96.1115 67.6512 93.8989 67.6203 93.8989 67.5629C93.8989 67.5055 96.1115 67.4216 98.8373 67.3907C101.563 67.3598 103.758 67.3775 103.785 67.4481Z" fill="#263238"/>
<path d="M103.121 70.2077C101.71 70.3377 100.293 70.3922 98.877 70.371C97.4594 70.4269 96.0397 70.4048 94.6245 70.3048C96.0366 70.1748 97.4546 70.1203 98.8726 70.1414C100.289 70.0882 101.707 70.1103 103.121 70.2077Z" fill="#263238"/>
<path d="M103.143 72.1283C101.732 72.2583 100.315 72.3128 98.899 72.2916C97.4813 72.3448 96.0618 72.3227 94.6465 72.2254C96.0584 72.0928 97.4766 72.0382 98.8945 72.062C100.311 72.0061 101.729 72.0282 103.143 72.1283Z" fill="#263238"/>
<path d="M103.169 74.2432C101.758 74.3758 100.339 74.4303 98.9214 74.4065C97.5052 74.4624 96.0871 74.4403 94.6733 74.3403C96.0854 74.2102 97.5035 74.1556 98.9214 74.1769C100.338 74.1238 101.756 74.1459 103.169 74.2432Z" fill="#263238"/>
<path d="M103.191 76.3625C101.781 76.4925 100.364 76.547 98.9478 76.5258C97.5316 76.579 96.1135 76.5569 94.6997 76.4596C96.1101 76.3267 97.5269 76.2722 98.9433 76.2962C100.359 76.2403 101.778 76.2624 103.191 76.3625Z" fill="#263238"/>
<path d="M103.948 77.5325C103.948 77.5987 101.736 77.6738 98.9655 77.7047C96.1954 77.7356 93.9829 77.7047 93.9829 77.6473C93.9829 77.5899 96.1954 77.5104 98.9655 77.4751C101.736 77.4398 103.948 77.4795 103.948 77.5325Z" fill="#263238"/>
<path d="M100.666 59.2048L96.8298 59.2489C96.6124 59.2514 96.4381 59.4294 96.4406 59.6464L96.4566 61.0371C96.4591 61.2541 96.6375 61.428 96.855 61.4255L100.691 61.3814C100.909 61.3789 101.083 61.2009 101.081 60.9839L101.064 59.5932C101.062 59.3762 100.884 59.2023 100.666 59.2048Z" fill="#455A64"/>
<path d="M97.182 61.4037C97.0639 61.0652 97.0172 60.7059 97.0449 60.3485C97.0003 59.9944 97.0305 59.635 97.1334 59.2933C97.2577 59.6288 97.306 59.9877 97.275 60.3441C97.3187 60.6999 97.287 61.0609 97.182 61.4037Z" fill="#263238"/>
<path d="M97.9653 61.3375C97.8469 61.0005 97.8002 60.6427 97.8282 60.2867C97.7813 59.9309 97.813 59.5693 97.9211 59.227C98.0892 59.919 98.1043 60.6391 97.9653 61.3375Z" fill="#263238"/>
<path d="M98.7577 61.3684C98.6396 61.0299 98.5929 60.6706 98.6205 60.3132C98.576 59.9591 98.6062 59.5997 98.709 59.2579C98.8334 59.5935 98.8817 59.9523 98.8506 60.3088C98.8943 60.6646 98.8627 61.0256 98.7577 61.3684Z" fill="#263238"/>
<path d="M99.6071 61.3287C99.4889 60.9901 99.4422 60.6309 99.4699 60.2734C99.4228 59.9192 99.4545 59.5589 99.5628 59.2182C99.6812 59.5552 99.7279 59.913 99.7 60.269C99.7469 60.6248 99.7151 60.9864 99.6071 61.3287Z" fill="#263238"/>
<path d="M100.395 61.3066C100.277 60.968 100.23 60.6088 100.257 60.2514C100.21 59.8971 100.242 59.5368 100.35 59.1961C100.469 59.5329 100.516 59.8909 100.488 60.2469C100.534 60.6027 100.502 60.9643 100.395 61.3066Z" fill="#263238"/>
<path d="M81.2399 84.6529L116.616 84.2463C117.667 84.2342 118.509 83.3745 118.497 82.326L118.478 80.6837C118.466 79.6352 117.604 78.7951 116.553 78.8072L81.1771 79.2138C80.1263 79.2258 79.2843 80.0856 79.2964 81.1341L79.3154 82.7764C79.3275 83.8249 80.1891 84.665 81.2399 84.6529Z" fill="#2E582C"/>
<path d="M115.356 83.6784L111.228 120.417C111.17 120.919 110.933 121.383 110.561 121.725C110.189 122.066 109.706 122.264 109.201 122.281L88.204 122.952C87.671 122.969 87.1513 122.783 86.7504 122.432C86.3494 122.081 86.0971 121.592 86.0446 121.062L82.3453 83.8374C82.2214 82.61 83.186 81.5415 84.164 81.5326L112.993 81.3428C114.511 81.334 115.498 82.4289 115.356 83.6784Z" fill="#2E582C"/>
<path d="M91.5844 98.3458C91.5844 98.3458 90.5622 99.3568 91.0313 100.439C91.6162 101.541 92.2865 102.597 93.0358 103.595C93.2957 102.317 93.8535 101.118 94.6642 100.094L95.5802 100.598L94.5979 96.743L90.8853 97.8424L91.5844 98.3458Z" fill="white"/>
<path d="M93.4873 104.403C93.6468 104.663 93.8607 104.886 94.1142 105.056C94.3677 105.226 94.655 105.339 94.9564 105.388C96.0598 105.49 97.1694 105.506 98.2752 105.437L98.2354 102.002L94.2528 102.05C93.7781 102.746 93.5125 103.562 93.4873 104.403Z" fill="white"/>
<path d="M102.957 93.0475C102.957 93.0475 102.643 91.6479 101.475 91.4669C100.229 91.3682 98.9769 91.3682 97.731 91.4669C98.6757 92.3667 99.3957 93.4752 99.8329 94.7032L98.9169 95.2286L102.714 96.4472L103.758 92.7252L102.957 93.0475Z" fill="white"/>
<path d="M96.8019 91.436C96.4971 91.4328 96.1951 91.4951 95.9164 91.6185C95.6378 91.7419 95.3889 91.9235 95.1868 92.1512C94.5137 93.0304 93.9101 93.9604 93.3813 94.9328L96.3152 96.7254L98.3994 93.3257C98.0581 92.5568 97.5039 91.9012 96.8019 91.436Z" fill="white"/>
<path d="M102.457 105.406C102.457 105.406 103.855 105.746 104.532 104.779C105.169 103.706 105.72 102.584 106.178 101.423C104.951 101.87 103.635 102.021 102.337 101.865L102.289 100.823L99.5142 103.675L102.39 106.258L102.457 105.406Z" fill="white"/>
<path d="M106.612 100.615C106.752 100.344 106.832 100.045 106.845 99.7404C106.858 99.4354 106.804 99.1313 106.687 98.8491C106.195 97.8575 105.627 96.9054 104.988 96.0013L102.076 97.8424L104.209 101.211C105.051 101.245 105.884 101.038 106.612 100.615Z" fill="white"/>
<path d="M110.303 106.576C110.236 106.576 110.674 101.582 111.272 95.4317C111.869 89.2813 112.466 84.248 112.471 84.3098C112.475 84.3716 112.099 89.3034 111.502 95.4538C110.904 101.604 110.365 106.585 110.303 106.576Z" fill="#263238"/>
<path d="M115.865 84.2568C115.865 84.3231 108.342 84.4555 99.0496 84.5571C89.757 84.6586 82.2344 84.6895 82.2344 84.6277C82.2344 84.5659 89.757 84.429 99.0496 84.3275C108.342 84.2259 115.865 84.195 115.865 84.2568Z" fill="#263238"/>
<path d="M112.927 107.211C112.927 107.211 115.958 107.772 115.206 111.759C115.206 111.759 116.555 115.291 114.785 116.669C113.015 118.046 113.847 121.481 112.028 122.444C111.068 122.956 109.258 123.327 107.767 123.526C107.568 123.554 107.366 123.51 107.197 123.403C107.027 123.296 106.902 123.132 106.842 122.941C106.783 122.75 106.793 122.544 106.872 122.36C106.95 122.176 107.092 122.026 107.271 121.936C107.43 121.854 107.594 121.781 107.763 121.72L109.975 120.722L111.325 117.362L107.258 117.892C106.977 117.935 106.69 117.893 106.434 117.77C106.178 117.647 105.965 117.449 105.824 117.203C105.585 116.762 105.616 116.188 106.709 115.715C108.586 114.898 111.763 114.483 111.763 114.483L112.276 110.92C112.276 110.92 111.019 112.108 110.639 110.788C110.258 109.468 112.927 107.211 112.927 107.211Z" fill="#FFCCB3"/>
<path d="M113.626 109.097C113.63 109.314 113.577 109.529 113.471 109.719C113.275 110.197 112.972 110.625 112.586 110.969C112.369 111.162 112.116 111.312 111.843 111.41C111.725 111.455 111.6 111.476 111.475 111.471C111.349 111.467 111.226 111.437 111.112 111.384C110.956 111.316 110.831 111.191 110.763 111.035C110.719 110.925 110.732 110.858 110.763 110.854C110.794 110.85 110.847 111.11 111.205 111.234C111.4 111.301 111.613 111.293 111.803 111.212C112.048 111.104 112.273 110.955 112.466 110.77C112.946 110.282 113.338 109.717 113.626 109.097Z" fill="#4DA247"/>
<path d="M114.874 115.989C114.874 115.989 114.816 116.095 114.661 116.232C114.44 116.425 114.191 116.584 113.922 116.704C113.027 117.046 112.092 117.272 111.139 117.375C110.037 117.552 109.041 117.702 108.316 117.817C107.928 117.892 107.534 117.929 107.139 117.927C107.512 117.798 107.897 117.706 108.289 117.653C109.006 117.517 110.002 117.344 111.099 117.163C112.036 117.061 112.96 116.863 113.856 116.572C114.212 116.409 114.553 116.214 114.874 115.989Z" fill="#4DA247"/>
<path d="M111.387 62.1013C110.477 61.9836 109.578 61.7901 108.701 61.5229C107.805 61.327 106.927 61.0568 106.077 60.715C106.985 60.8359 107.882 61.0308 108.758 61.2978C109.655 61.4931 110.534 61.7618 111.387 62.1013Z" fill="#263238"/>
<path d="M76.1764 76.6494C76.2243 76.4488 76.2073 76.2382 76.1278 76.0478C76.0483 75.8574 75.9104 75.6971 75.7339 75.5898C75.8315 75.6034 75.9309 75.5967 76.0259 75.5702C76.1208 75.5437 76.2093 75.4979 76.2857 75.4357C76.3621 75.3736 76.4248 75.2964 76.47 75.2089C76.5151 75.1215 76.5417 75.0257 76.5481 74.9275C76.5963 74.7285 76.5892 74.5202 76.5276 74.3249C76.466 74.1297 76.3522 73.9548 76.1985 73.8193C76.3981 73.8168 76.5896 73.7404 76.736 73.605C76.8823 73.4696 76.9731 73.2847 76.9906 73.0864C77.0103 72.8634 76.956 72.6402 76.8361 72.4511C76.7162 72.262 76.5372 72.1176 76.3268 72.04C76.522 72.0768 76.7239 72.0404 76.8938 71.9377C77.0637 71.835 77.1896 71.6733 77.2472 71.4836C77.4198 70.8081 76.6764 70.4637 76.6764 70.4637L77.5083 69.8633L77.9199 67.3157C77.9435 67.1779 77.9367 67.0365 77.9 66.9016C77.8633 66.7666 77.7976 66.6412 77.7075 66.5342L75.7958 64.225L72.8089 63.7261L72.3664 63.6555L69.822 65.2494C69.7044 65.3242 69.6041 65.4231 69.5278 65.5396C69.4515 65.6561 69.401 65.7874 69.3795 65.9249L68.968 68.4725L69.5698 69.3025C69.5698 69.3025 68.7556 69.3952 68.6848 70.0929C68.614 70.7905 69.3839 70.9053 69.3839 70.9053C69.159 70.9131 68.9429 70.9949 68.7693 71.1378C68.5957 71.2807 68.4742 71.4767 68.4237 71.6956C68.3779 71.889 68.406 72.0926 68.5026 72.2665C68.5991 72.4404 68.7572 72.5721 68.9458 72.636C68.7565 72.7162 68.5928 72.8467 68.4726 73.0133C68.3525 73.1799 68.2804 73.3762 68.2644 73.5809C68.2389 73.6758 68.2335 73.775 68.2485 73.8722C68.2634 73.9694 68.2984 74.0624 68.3513 74.1454C68.4041 74.2284 68.4736 74.2995 68.5553 74.3543C68.6371 74.4092 68.7294 74.4465 68.8264 74.4639C68.6224 74.5114 68.4389 74.6227 68.3028 74.7815C68.1666 74.9404 68.085 75.1385 68.0697 75.3469C68.0174 75.5406 68.0328 75.7462 68.1132 75.9299C68.1936 76.1137 68.3343 76.2647 68.5122 76.358L67.5608 77.1086L66.6758 82.504C66.7238 82.8583 66.8901 83.1861 67.1478 83.4344C67.4056 83.6828 67.7397 83.8372 68.0962 83.8727C68.4451 83.9494 68.8101 83.8937 69.1201 83.7166C69.4301 83.5395 69.663 83.2536 69.7733 82.9146C69.7733 82.9146 69.6052 84.0935 70.6937 84.2922H70.8398C71.9372 84.4467 72.1673 83.2722 72.1673 83.2722C72.1642 83.6289 72.2944 83.974 72.5325 84.2401C72.7706 84.5062 73.0994 84.6743 73.455 84.7116C73.8035 84.7864 74.1671 84.7426 74.4878 84.5874C74.8085 84.4322 75.068 84.1744 75.225 83.8551L76.11 78.4597L75.4639 77.4574C75.6553 77.4199 75.8289 77.3203 75.9578 77.1742C76.0866 77.0281 76.1635 76.8436 76.1764 76.6494Z" fill="#E0E0E0"/>
<path d="M76.0874 62.3402L72.6844 61.792C72.53 61.7672 72.3846 61.8719 72.3597 62.026L72.1481 63.3336C72.1232 63.4877 72.2281 63.6327 72.3825 63.6576L75.7856 64.2057C75.94 64.2306 76.0854 64.1259 76.1103 63.9718L76.3219 62.6642C76.3468 62.5101 76.2418 62.365 76.0874 62.3402Z" fill="#263238"/>
<path d="M76.6678 70.4681C75.4302 70.3876 74.199 70.2283 72.9817 69.9913C71.7531 69.8313 70.5355 69.5969 69.3354 69.2893C70.5728 69.3724 71.8038 69.5317 73.0215 69.7661C74.2501 69.9261 75.4678 70.1605 76.6678 70.4681Z" fill="#263238"/>
<path d="M77.4466 69.8412C76.0184 69.7285 74.5973 69.5384 73.1897 69.2716C71.7709 69.0817 70.3632 68.8164 68.9727 68.4769C70.4006 68.5922 71.8216 68.7823 73.2296 69.0464C74.6484 69.2364 76.0561 69.5017 77.4466 69.8412Z" fill="#263238"/>
<path d="M76.4907 72.1062C75.2623 72.0238 74.0401 71.866 72.8312 71.6338C71.6099 71.4757 70.3996 71.2428 69.207 70.9362C70.4359 71.0133 71.6584 71.1711 72.8666 71.4086C74.0878 71.5666 75.2982 71.7996 76.4907 72.1062Z" fill="#263238"/>
<path d="M76.2206 73.7486C74.9932 73.6711 73.7722 73.5133 72.5655 73.2762C71.3442 73.1188 70.1338 72.8858 68.9414 72.5786C70.1698 72.661 71.392 72.8188 72.6009 73.051C73.8209 73.2082 75.0298 73.4412 76.2206 73.7486Z" fill="#263238"/>
<path d="M75.9286 75.5633C74.6998 75.4856 73.4773 75.3278 72.2691 75.0909C71.0493 74.9332 69.8404 74.7002 68.6494 74.3933C69.8778 74.4762 71.0999 74.634 72.3089 74.8657C73.5288 75.0234 74.7377 75.2564 75.9286 75.5633Z" fill="#263238"/>
<path d="M75.6366 77.3779C74.4077 77.3008 73.1852 77.143 71.9771 76.9055C70.7572 76.7484 69.5483 76.5154 68.3574 76.2079C69.5846 76.2881 70.8054 76.4459 72.0125 76.6803C73.2339 76.8378 74.4442 77.0708 75.6366 77.3779Z" fill="#263238"/>
<path d="M76.1058 78.5038C74.6674 78.3879 73.2361 78.1963 71.8179 77.9298C70.3871 77.7375 68.9676 77.4693 67.5654 77.1263C69.0038 77.2422 70.4351 77.4338 71.8533 77.7003C73.2842 77.892 74.7037 78.1603 76.1058 78.5038Z" fill="#263238"/>
<path d="M69.1938 70.4681C69.1938 70.4681 67.0565 71.2143 66.9813 72.1989C66.906 73.1835 64.8085 79.4752 64.8085 79.4752L55.3743 84.3275L46.7012 81.9477C46.7012 81.9477 42.3912 90.469 41.7894 93.0254C41.3203 95.0079 41.2761 100.973 43.8515 101.768C47.3915 102.867 52.5998 100.213 55.4717 97.8248C59.6401 94.3588 68.0742 86.173 69.2469 83.6387C70.0076 81.9507 70.6522 80.213 71.1762 78.4376L69.1938 70.4681Z" fill="#FFCCB3"/>
<path d="M69.1939 70.4681C69.1939 70.4681 74.4553 69.2319 74.8226 69.4968C75.1899 69.7617 77.3803 72.3843 77.3714 72.8744C77.3626 73.3645 76.7121 74.4065 76.7121 74.4065C76.7121 74.4065 77.4467 76.7068 75.6412 77.4971C75.6412 77.4971 76.9688 78.4685 76.4953 79.6297C76.2676 80.0932 75.9323 80.4958 75.5173 80.8041L75.1987 79.3295L72.4641 78.4464L71.0392 78.857L68.8267 75.3249L69.1939 70.4681Z" fill="#FFCCB3"/>
<path d="M75.4639 77.5325C75.4294 77.2706 75.3356 77.0199 75.1896 76.7995C74.9152 76.3845 74.2603 76.1505 73.4903 75.9783C71.9593 75.581 70.7335 75.1924 70.7557 75.0953C70.7778 74.9981 72.0345 75.2675 73.5656 75.6604C73.9383 75.7443 74.3015 75.8656 74.6497 76.0225C74.9473 76.1571 75.1993 76.3749 75.3754 76.6494C75.6719 77.166 75.4993 77.5325 75.4639 77.5325Z" fill="#4DA247"/>
<path d="M75.9065 77.2013C75.8371 76.8303 75.8178 76.4516 75.849 76.0755C75.8853 75.6912 75.8599 75.3037 75.7738 74.9275C75.6277 74.5699 75.0967 74.486 74.579 74.3888C72.5081 73.9473 70.8443 73.5058 70.862 73.4043C70.8797 73.3027 72.5744 73.6294 74.6454 74.0886C74.9056 74.1383 75.1627 74.2031 75.4153 74.2829C75.5501 74.3228 75.675 74.3906 75.7817 74.4819C75.8885 74.5732 75.9747 74.6859 76.0348 74.8127C76.1118 75.0383 76.1375 75.278 76.1101 75.5147C76.1101 75.709 76.0791 75.8988 76.0658 76.0843C76.0662 76.4623 76.0126 76.8384 75.9065 77.2013Z" fill="#4DA247"/>
<path d="M76.7917 74.4153C76.7518 74.4418 76.5306 74.0842 76.3978 73.4617C76.3292 73.1131 76.2052 72.7778 76.0306 72.4682C75.9215 72.2956 75.7698 72.1538 75.59 72.0563C75.4103 71.9589 75.2085 71.9092 75.0039 71.9119C73.0967 71.8678 71.5303 71.8015 71.5303 71.7132C71.5303 71.6249 73.0879 71.5587 75.0349 71.6073C75.2894 71.6227 75.538 71.6903 75.765 71.806C75.9776 71.9301 76.1532 72.1084 76.2739 72.3225C76.4527 72.6637 76.5667 73.035 76.6102 73.4175C76.6678 74.0445 76.7917 74.3933 76.7917 74.4153Z" fill="#4DA247"/>
<path d="M58.5339 82.8572C57.9748 83.2163 57.3907 83.535 56.786 83.8109L52.5291 86.0185C50.9184 86.9015 49.4626 87.6654 48.3076 88.2923C47.7399 88.6292 47.1483 88.9243 46.5376 89.1754C47.0607 88.7661 47.6173 88.4013 48.2014 88.0848C49.2546 87.449 50.7326 86.6057 52.3919 85.7315C54.0513 84.8573 55.578 84.1111 56.6975 83.599C57.2868 83.2988 57.9013 83.0506 58.5339 82.8572Z" fill="#4DA247"/>
</g>
<defs>
<clipPath id="clip0_519_4588">
<rect width="211" height="200" fill="white" transform="translate(12 17)"/>
</clipPath>
</defs>
</svg>
